<svg width="414" height="139" viewBox="0 0 414 139" fill="none" xmlns="http://www.w3.org/2000/svg">
<g opacity="0.1">
<path d="M440.33 89.7045L433.309 102.418C430.723 85.3345 404.565 137.308 368.929 138.912C333.29 140.521 370.588 74.6317 333.353 64.7804C296.12 54.9325 205.963 157.519 164.063 65.9893C122.163 -25.5375 -6.66852e-05 -17.8429 -6.66852e-05 -17.8429L10.6411 -37.1067C10.6411 -37.1067 136.88 -44.3559 179.516 50.7297C222.15 145.812 307.822 39.9418 342.683 50.8226C377.545 61.6974 341.077 122.829 376.645 121.676C412.213 120.527 437.315 69.7706 440.327 89.701L440.33 89.7045Z" fill="#123635"/>
<path d="M454.315 64.3865L447.329 77.0311C443.886 54.2497 419.837 103.785 384.346 104.485C348.849 105.178 384.484 48.8131 351.992 36.9019C319.497 24.9901 238.316 134.145 194.945 35.5067C151.573 -63.1347 21.2644 -56.336 21.2644 -56.336L31.866 -75.5254C31.866 -75.5254 166.25 -81.8786 210.36 20.3186C254.469 122.516 331.164 10.0712 361.287 23.0129C391.411 35.9516 356.601 87.5602 392.026 87.3212C427.451 87.0792 450.445 38.7582 454.318 64.387L454.315 64.3865Z" fill="#123635"/>
<path d="M468.221 39.2143L461.279 51.7819C456.974 23.3082 435.035 70.4119 399.684 70.1976C364.333 69.9832 398.309 23.1352 370.557 9.16354C342.806 -4.80513 270.596 110.92 225.749 5.16993C180.906 -100.583 42.4478 -94.6869 42.4478 -94.6869L53.0108 -113.808C53.0108 -113.808 195.545 -119.258 241.122 -9.95033C286.705 99.3584 354.428 -19.6566 379.813 -4.65401C405.192 10.3507 372.045 52.4371 407.329 53.1028C442.608 53.774 463.488 7.88708 468.225 39.2117L468.221 39.2143Z" fill="#123635"/>
<path d="M472.963 30.6263L470.575 34.9517C466.27 6.47496 445.931 45.6583 411.385 43.2856C378.125 41.0023 406.754 2.03387 381.986 -12.6984C355.446 -28.5853 292.541 76.4634 243.218 -20.6941C192.88 -119.845 58.5608 -123.856 58.5608 -123.856L64.1491 -133.97C64.1491 -133.97 189.809 -121.045 245.352 -31.5003C297.917 53.2517 356.455 -37.5124 384.198 -20.8082C408.316 -6.28897 384.28 29.6071 415.482 33.4065C449.344 37.5351 469.087 5.00305 472.963 30.6293L472.963 30.6263Z" fill="#123635"/>
<path d="M477.142 23.0629L475.42 26.1814C471.976 3.40308 452.88 29.3568 419.649 23.4049C390.534 18.1871 409.969 -14.7743 386.481 -29.04C357.564 -46.6035 302.634 29.7818 247.549 -42.4329C186.178 -122.89 69.804 -144.213 69.804 -144.213L74.7268 -153.126C74.7268 -153.126 180.979 -123.762 249.017 -52.0381C305.693 7.70773 357.941 -54.3804 388.027 -35.9489C410.889 -21.9424 396.067 8.21027 423.078 14.7232C455.718 22.5972 474.13 3.12947 477.142 23.0629Z" fill="#123635"/>
<path d="M481.174 15.7618L479.015 19.6706C476.429 2.58407 458.723 15.6748 426.664 5.77465C401.756 -1.91566 411.973 -29.3915 389.726 -43.1282C358.471 -62.4307 307.866 -14.291 250.634 -61.9178C174.915 -124.94 79.8036 -162.31 79.8036 -162.31L85.1628 -172.01C85.1628 -172.01 168.04 -126.124 252.535 -72.3077C309.331 -36.1403 359.289 -71.0065 391.708 -50.8214C413.34 -37.3544 407.712 -12.437 430.535 -3.69034C462.001 8.37359 479.023 1.52369 481.177 15.7623L481.174 15.7618Z" fill="#123635"/>
<path d="M488.327 2.81799L484.204 10.2816C482.483 -1.10904 466.095 -0.349941 435.27 -14.7312C414.501 -24.4211 415.581 -46.9009 394.566 -60.0915C360.989 -81.1613 310.959 -58.6583 255.31 -84.2782C161.06 -127.669 91.3885 -183.286 91.3885 -183.286L98.7124 -196.547C98.7124 -196.547 154.618 -129.219 259.177 -98.2321C313.426 -82.1578 363.781 -93.3183 398.51 -71.3491C418.914 -58.4399 422.313 -38.2847 441.1 -27.758C471.183 -10.8954 487.032 -5.73179 488.324 2.81449L488.327 2.81799Z" fill="#123635"/>
<path d="M497.286 -13.4017L492.722 -5.14223C491.862 -10.8376 476.398 -21.7527 447.204 -41.2719C430.323 -52.5606 422.532 -70.4676 402.731 -83.0902C366.857 -105.964 316.453 -105.213 263.318 -112.673C148.605 -128.78 106.308 -210.295 106.308 -210.295L114.071 -224.343C114.071 -224.343 143.771 -126.26 267.621 -127.417C320.397 -127.911 370.131 -118.966 407.117 -95.134C426.325 -82.8212 438.399 -67.0834 453.48 -55.0846C481.564 -32.7384 496.856 -16.2461 497.288 -13.3982L497.286 -13.4017Z" fill="#123635"/>
</g>
</svg>
