<svg width="34" height="34" viewBox="0 0 34 34" fill="none" xmlns="http://www.w3.org/2000/svg">
<path fill-rule="evenodd" clip-rule="evenodd" d="M23.2487 3.92219L23.2501 4.98416C27.1526 5.29 29.7304 7.94917 29.7346 12.0271L29.75 23.9636C29.7556 28.4098 26.9623 31.1454 22.4851 31.1525L11.5485 31.1666C7.09919 31.1723 4.27099 28.3715 4.2654 23.9127L4.25001 12.1163C4.24441 8.01147 6.73133 5.35938 10.6337 5.00115L10.6323 3.93918C10.6309 3.31616 11.0925 2.84748 11.708 2.84748C12.3234 2.84606 12.785 3.31333 12.7864 3.93635L12.7878 4.92752L21.0961 4.91619L21.0947 3.92502C21.0933 3.302 21.5549 2.83473 22.1703 2.83332C22.7718 2.8319 23.2474 3.29917 23.2487 3.92219ZM6.4057 12.5536L27.5822 12.5253V12.0297C27.5221 8.98538 25.9947 7.38818 23.2532 7.1503L23.2546 8.24059C23.2546 8.84945 22.7804 9.33229 22.179 9.33229C21.5636 9.33371 21.1006 8.85228 21.1006 8.24342L21.0992 7.09649L12.7908 7.10782L12.7922 8.25333C12.7922 8.86361 12.3321 9.34504 11.7166 9.34504C11.1012 9.34645 10.6382 8.86644 10.6382 8.25616L10.6368 7.16588C7.90932 7.43916 6.4001 9.04202 6.4043 12.1132L6.4057 12.5536ZM21.5898 18.989V19.0046C21.6038 19.6559 22.1353 20.1501 22.7801 20.136C23.4096 20.1204 23.9117 19.5809 23.8977 18.9296C23.8683 18.3065 23.3634 17.7982 22.7354 17.7996C22.092 17.8138 21.5884 18.3377 21.5898 18.989ZM22.7451 25.3468C22.1016 25.3327 21.5827 24.796 21.5813 24.1447C21.5673 23.4933 22.0835 22.9539 22.7269 22.9383H22.7409C23.3983 22.9383 23.9312 23.4749 23.9312 24.1404C23.9326 24.8059 23.4011 25.3454 22.7451 25.3468ZM15.8271 19.0119C15.8551 19.6633 16.388 20.1716 17.0314 20.1433C17.6609 20.1135 18.163 19.5755 18.135 18.9241C18.1196 18.287 17.6021 17.7914 16.9727 17.7928C16.3293 17.8211 15.8257 18.3606 15.8271 19.0119ZM17.0363 25.2824C16.3929 25.3108 15.8614 24.8024 15.832 24.1511C15.832 23.4997 16.3342 22.9617 16.9776 22.9319C17.607 22.9305 18.1259 23.4261 18.1399 24.0619C18.1693 24.7146 17.6657 25.2527 17.0363 25.2824ZM10.0644 19.0608C10.0924 19.7121 10.6253 20.2218 11.2687 20.1921C11.8982 20.1638 12.4003 19.6243 12.3709 18.973C12.3569 18.3358 11.8394 17.8402 11.2086 17.8416C10.5652 17.8699 10.0631 18.4094 10.0644 19.0608ZM11.2745 25.2902C10.6311 25.3199 10.0996 24.8102 10.0702 24.1589C10.0688 23.5075 10.5724 22.968 11.2158 22.9397C11.8452 22.9383 12.3641 23.4339 12.3781 24.0711C12.4075 24.7224 11.9053 25.2619 11.2745 25.2902Z" fill="#06522D"/>
</svg>
