<svg width="34" height="34" viewBox="0 0 34 34" fill="none" xmlns="http://www.w3.org/2000/svg">
<path d="M6.37596 23.375C6.15071 23.3752 5.9312 23.3039 5.74913 23.1713C5.56707 23.0386 5.43187 22.8516 5.36305 22.6371C5.29424 22.4226 5.29537 22.1918 5.36628 21.978C5.4372 21.7642 5.57423 21.5785 5.75759 21.4476L9.47634 18.7914C9.70569 18.6304 9.98934 18.5666 10.2655 18.6137C10.5417 18.6609 10.7881 18.8153 10.951 19.0432C11.114 19.2712 11.1803 19.5542 11.1355 19.8308C11.0908 20.1074 10.9385 20.3551 10.712 20.5201L6.99327 23.1763C6.81327 23.3053 6.59742 23.3748 6.37596 23.375Z" fill="#2B8D5E"/>
<path d="M22.3126 10.625H19.7031C19.4651 10.625 19.2324 10.5857 19.0071 10.5081L13.1698 7.5395C12.3708 7.13036 11.4625 6.98573 10.576 7.12648C9.68945 7.26723 8.8706 7.68608 8.23765 8.32256L6.6864 9.87381C6.58775 9.97246 6.5095 10.0896 6.45611 10.2185C6.40272 10.3473 6.37524 10.4855 6.37524 10.625C6.37524 10.9067 6.48717 11.177 6.6864 11.3762C6.88562 11.5754 7.15583 11.6873 7.43758 11.6873C7.71933 11.6873 7.98954 11.5754 8.18877 11.3762L9.74002 9.82494C10.3403 9.22462 11.2222 9.06631 12.001 9.367L9.43508 13.4534C9.19315 13.8416 9.08229 14.2973 9.11882 14.7533C9.15536 15.2094 9.33736 15.6416 9.63802 15.9864L12.8266 19.6137L13.8328 24.6468C13.8883 24.9231 14.0513 25.166 14.2859 25.3222C14.5205 25.4783 14.8076 25.5348 15.0839 25.4793C15.3602 25.4238 15.6031 25.2608 15.7592 25.0261C15.9153 24.7915 15.9718 24.5045 15.9163 24.2282L14.8538 18.9157C14.8176 18.7328 14.7337 18.5627 14.6105 18.4227L13.8009 17.5015L17.3911 12.0689L18.103 12.4312C18.1384 12.4495 18.1749 12.4655 18.2124 12.4791C18.6905 12.6597 19.192 12.75 19.7031 12.75H22.3126C22.5944 12.75 22.8646 12.6381 23.0639 12.4388C23.2631 12.2395 23.3751 11.9693 23.3751 11.6875C23.3751 11.4057 23.2631 11.1355 23.0639 10.9362C22.8646 10.7369 22.5944 10.625 22.3126 10.625ZM12.3463 15.8482L11.2339 14.5828L13.921 10.3052L15.485 11.101L12.3463 15.8482ZM18.0626 8.5C16.3052 8.5 14.8751 7.06987 14.8751 5.3125C14.8751 3.55512 16.3052 2.125 18.0626 2.125C19.82 2.125 21.2501 3.55512 21.2501 5.3125C21.2501 7.06987 19.82 8.5 18.0626 8.5ZM18.0626 4.25C17.789 4.26224 17.5307 4.37953 17.3414 4.57744C17.1522 4.77536 17.0465 5.03865 17.0465 5.3125C17.0465 5.58634 17.1522 5.84964 17.3414 6.04756C17.5307 6.24547 17.789 6.36276 18.0626 6.375C18.3362 6.36276 18.5945 6.24547 18.7837 6.04756C18.973 5.84964 19.0786 5.58634 19.0786 5.3125C19.0786 5.03865 18.973 4.77536 18.7837 4.57744C18.5945 4.37953 18.3362 4.26224 18.0626 4.25Z" fill="#2B8D5E"/>
<path d="M29.75 24.4375H29.2124C29.1486 19.1845 28.5706 17.6503 26.8834 15.044L27.8343 14.8538C28.0397 14.8122 28.2285 14.7113 28.3773 14.5637L31.5648 11.3762C31.6634 11.2776 31.7416 11.1605 31.795 11.0316C31.8484 10.9027 31.8759 10.7645 31.8759 10.625C31.8759 10.4855 31.8484 10.3474 31.795 10.2185C31.7416 10.0896 31.6634 9.97248 31.5648 9.87384C31.4661 9.77519 31.349 9.69694 31.2201 9.64355C31.0912 9.59016 30.9531 9.56268 30.8136 9.56268C30.6741 9.56268 30.5359 9.59016 30.407 9.64355C30.2781 9.69694 30.161 9.77519 30.0624 9.87384L27.1022 12.834L22.1053 13.8338C21.8379 13.8975 21.6055 14.0625 21.4572 14.294C21.3088 14.5255 21.256 14.8055 21.3098 15.0752C21.3636 15.3448 21.5198 15.5831 21.7456 15.74C21.9714 15.8968 22.2493 15.96 22.5207 15.9163L24.6351 15.4934C26.4563 18.2251 27.0257 19.1027 27.0874 24.4375H25.5C25.2182 24.4375 24.948 24.5495 24.7487 24.7487C24.5494 24.948 24.4375 25.2182 24.4375 25.5V30.8125C24.4375 31.0943 24.5494 31.3646 24.7487 31.5638C24.948 31.7631 25.2182 31.875 25.5 31.875H29.75C30.9219 31.875 31.875 30.922 31.875 29.75V26.5625C31.875 25.3906 30.9219 24.4375 29.75 24.4375ZM29.75 29.75H26.5625V26.5625H29.75V29.75ZM22.3125 31.875H4.78125C3.31606 31.875 2.125 30.684 2.125 29.2188C2.125 27.7536 3.31606 26.5625 4.78125 26.5625H22.3125C22.5943 26.5625 22.8645 26.6745 23.0638 26.8737C23.2631 27.073 23.375 27.3432 23.375 27.625C23.375 27.9068 23.2631 28.1771 23.0638 28.3763C22.8645 28.5756 22.5943 28.6875 22.3125 28.6875H4.78125C4.48906 28.6875 4.25 28.9266 4.25 29.2188C4.25 29.511 4.48906 29.75 4.78125 29.75H22.3125C22.5943 29.75 22.8645 29.862 23.0638 30.0612C23.2631 30.2605 23.375 30.5307 23.375 30.8125C23.375 31.0943 23.2631 31.3646 23.0638 31.5638C22.8645 31.7631 22.5943 31.875 22.3125 31.875Z" fill="#2B8D5E"/>
</svg>
