<svg width="104" height="104" viewBox="0 0 104 104" fill="none" xmlns="http://www.w3.org/2000/svg">
<g filter="url(#filter0_dd_95_2455)">
<path d="M12 42C12 19.9086 29.9086 2 52 2C74.0914 2 92 19.9086 92 42C92 64.0914 74.0914 82 52 82C29.9086 82 12 64.0914 12 42Z" fill="url(#paint0_linear_95_2455)" shape-rendering="crispEdges"/>
<path d="M71.602 38C72.5153 42.4826 71.8644 47.1428 69.7577 51.2036C67.6509 55.2643 64.2157 58.4801 60.025 60.3146C55.8342 62.1491 51.1412 62.4915 46.7286 61.2847C42.3159 60.0779 38.4503 57.3948 35.7765 53.6828C33.1027 49.9709 31.7822 45.4545 32.0353 40.8868C32.2884 36.319 34.0997 31.9762 37.1673 28.5823C40.2348 25.1885 44.3731 22.9488 48.8921 22.2369C53.4111 21.5249 58.0375 22.3837 62 24.67" stroke="#00A63E" stroke-width="4" stroke-linecap="round" stroke-linejoin="round"/>
<path d="M46 40L52 46L72 26" stroke="#00A63E" stroke-width="4" stroke-linecap="round" stroke-linejoin="round"/>
</g>
<defs>
<filter id="filter0_dd_95_2455" x="0" y="0" width="104" height="104" filterUnits="userSpaceOnUse" color-interpolation-filters="sRGB">
<feFlood flood-opacity="0" result="BackgroundImageFix"/>
<feColorMatrix in="SourceAlpha" type="matrix" values="0 0 0 0 0 0 0 0 0 0 0 0 0 0 0 0 0 0 127 0" result="hardAlpha"/>
<feMorphology radius="4" operator="erode" in="SourceAlpha" result="effect1_dropShadow_95_2455"/>
<feOffset dy="4"/>
<feGaussianBlur stdDeviation="3"/>
<feComposite in2="hardAlpha" operator="out"/>
<feColorMatrix type="matrix" values="0 0 0 0 0 0 0 0 0 0 0 0 0 0 0 0 0 0 0.1 0"/>
<feBlend mode="normal" in2="BackgroundImageFix" result="effect1_dropShadow_95_2455"/>
<feColorMatrix in="SourceAlpha" type="matrix" values="0 0 0 0 0 0 0 0 0 0 0 0 0 0 0 0 0 0 127 0" result="hardAlpha"/>
<feMorphology radius="3" operator="erode" in="SourceAlpha" result="effect2_dropShadow_95_2455"/>
<feOffset dy="10"/>
<feGaussianBlur stdDeviation="7.5"/>
<feComposite in2="hardAlpha" operator="out"/>
<feColorMatrix type="matrix" values="0 0 0 0 0 0 0 0 0 0 0 0 0 0 0 0 0 0 0.1 0"/>
<feBlend mode="normal" in2="effect1_dropShadow_95_2455" result="effect2_dropShadow_95_2455"/>
<feBlend mode="normal" in="SourceGraphic" in2="effect2_dropShadow_95_2455" result="shape"/>
</filter>
<linearGradient id="paint0_linear_95_2455" x1="12" y1="2" x2="92" y2="82" gradientUnits="userSpaceOnUse">
<stop stop-color="#F0FDF4"/>
<stop offset="1" stop-color="#ECFDF5"/>
</linearGradient>
</defs>
</svg>
