<svg width="32" height="32" viewBox="0 0 32 32" fill="none" xmlns="http://www.w3.org/2000/svg">
<path d="M5.33291 18.6655C5.08061 18.6664 4.83325 18.5956 4.61956 18.4615C4.40587 18.3274 4.23463 18.1354 4.12572 17.9078C4.01682 17.6802 3.97472 17.4264 4.00433 17.1758C4.03394 16.9253 4.13403 16.6883 4.29298 16.4923L17.4921 2.89321C17.5911 2.77893 17.726 2.7017 17.8747 2.6742C18.0234 2.64671 18.177 2.67057 18.3104 2.74189C18.4437 2.81321 18.5488 2.92774 18.6085 3.06668C18.6681 3.20561 18.6788 3.36071 18.6387 3.5065L16.0789 11.5326C16.0034 11.7347 15.978 11.952 16.005 12.1659C16.032 12.3799 16.1104 12.5841 16.2336 12.7611C16.3569 12.9381 16.5212 13.0826 16.7125 13.1821C16.9039 13.2816 17.1165 13.3332 17.3321 13.3325H26.6648C26.9171 13.3317 27.1645 13.4024 27.3782 13.5365C27.5919 13.6707 27.7631 13.8627 27.872 14.0903C27.9809 14.3178 28.023 14.5717 27.9934 14.8222C27.9638 15.0728 27.8637 15.3098 27.7048 15.5057L14.5056 29.1048C14.4066 29.2191 14.2717 29.2963 14.123 29.3238C13.9743 29.3513 13.8207 29.3275 13.6874 29.2561C13.5541 29.1848 13.4489 29.0703 13.3893 28.9314C13.3296 28.7924 13.3189 28.6373 13.3591 28.4915L15.9189 20.4654C15.9944 20.2634 16.0197 20.0461 15.9928 19.8321C15.9658 19.6181 15.8873 19.4139 15.7641 19.2369C15.6409 19.0599 15.4765 18.9155 15.2852 18.816C15.0939 18.7164 14.8813 18.6648 14.6656 18.6655H5.33291Z" stroke="#FFDF20" stroke-width="2.66649" stroke-linecap="round" stroke-linejoin="round"/>
</svg>
