<svg width="20" height="20" viewBox="0 0 20 20" fill="none" xmlns="http://www.w3.org/2000/svg">
<path d="M2.00012 9.11133C2.00012 13.5558 5.55568 17.1113 10.0001 17.1113C14.389 17.1113 18.0001 13.5558 18.0001 9.11133V10.8891C18.0001 15.3336 14.4446 18.8891 10.0001 18.8891C5.61123 18.8891 2.00012 15.3336 2.00012 10.8891V9.11133Z" fill="#097741"/>
<path d="M2.00012 9.11133C2.00012 13.5558 5.55568 17.1113 10.0001 17.1113C14.389 17.1113 18.0001 13.5558 18.0001 9.11133V10.8891C18.0001 15.3336 14.4446 18.8891 10.0001 18.8891C5.61123 18.8891 2.00012 15.3336 2.00012 10.8891V9.11133Z" fill="#22B86F"/>
<path d="M10.0001 17.1113C8.38898 17.1113 6.83343 16.6113 5.61121 15.778V17.5558C6.88898 18.3891 8.38898 18.8891 10.0001 18.8891C14.389 18.8891 18.0001 15.3336 18.0001 10.8891V9.11133C18.0001 13.5002 14.389 17.1113 10.0001 17.1113Z" fill="#029E52"/>
<path d="M11.3887 16.9446V18.7223C15.1109 18.0557 17.9998 14.7779 17.9998 10.8334V9.05566C17.9998 13.0557 15.1664 16.2779 11.3887 16.9446Z" fill="#22B86F"/>
<path d="M15.8887 14.5002V16.278C17.222 14.8335 17.9998 12.9447 17.9998 10.8891V9.11133C17.9998 11.1669 17.1664 13.0558 15.8887 14.5002Z" fill="#029E52"/>
<path d="M18.0001 9.11133C18.0001 13.5558 14.4446 17.1113 10.0001 17.1113C6.00012 17.1113 2.72234 14.2224 2.11123 10.3891C1.33345 5.61133 5.00012 1.11133 10.0001 1.11133C13.389 1.11133 16.3334 3.22244 17.4446 6.278C17.8334 7.11133 18.0001 8.11133 18.0001 9.11133Z" fill="#6CFEB7"/>
<path opacity="0.4" d="M3.94458 13.1669C5.55569 15.1113 7.77791 16.1113 10.0001 16.1113C12.2224 16.1113 14.4446 15.1113 16.0557 13.1113C14.9446 15.1113 12.7224 16.5558 10.0001 16.6113C7.33347 16.6113 5.05569 15.1113 3.94458 13.1669Z" fill="white"/>
<path opacity="0.2" d="M16.7782 6.16705C15.3893 3.50038 12.7782 1.94482 10.0004 1.94482C7.22266 1.94482 4.61155 3.50038 3.22266 6.11149C4.11155 3.55594 6.77821 1.50038 10.0004 1.44482C13.2227 1.50038 15.8338 3.55594 16.7782 6.16705Z" fill="white"/>
<path opacity="0.4" d="M3.94458 13.1669C5.55569 15.1113 7.77791 16.1113 10.0001 16.1113C12.2224 16.1113 14.4446 15.1113 16.0557 13.1113C14.9446 15.1113 12.7224 16.5558 10.0001 16.6113C7.33347 16.6113 5.05569 15.1113 3.94458 13.1669Z" fill="white"/>
<path d="M16.0557 9.11133C16.0557 12.4447 13.3335 15.1669 10.0001 15.1669C6.6668 15.1669 3.94458 12.4447 3.94458 9.11133C3.94458 5.778 6.6668 3.05578 10.0001 3.05578C13.3335 3.05578 16.0557 5.778 16.0557 9.11133Z" fill="#22B86F"/>
<path d="M11.9998 10.0003L12.3332 12.1114C12.3887 12.4448 12.0554 12.667 11.7776 12.5559L9.88872 11.5559C9.77761 11.5003 9.61095 11.5003 9.49984 11.5559L7.61095 12.5559C7.33317 12.7225 6.99984 12.4448 7.05539 12.1114L7.38873 10.0003C7.38873 9.88921 7.38873 9.72255 7.27761 9.66699L5.72206 8.16699C5.49984 7.94477 5.61095 7.55588 5.94428 7.50033L8.05539 7.16699C8.1665 7.16699 8.27761 7.05588 8.33317 6.94477L9.33317 5.00033C9.49984 4.72255 9.88873 4.72255 10.0554 5.00033L10.9998 6.94477C11.0554 7.05588 11.1665 7.16699 11.2776 7.16699L13.3887 7.50033C13.7221 7.55588 13.8332 7.94477 13.6109 8.16699L12.0554 9.66699C11.9998 9.72255 11.9443 9.88921 11.9998 10.0003Z" fill="#11894F"/>
<path d="M15.4446 11.7224C17.0557 7.88911 14.2224 3.55578 10.0001 3.55578C5.83348 3.55578 2.94459 7.778 4.50015 11.6669C2.66681 7.66689 5.5557 3.05578 10.0001 3.05578C14.5001 3.05578 17.389 7.778 15.4446 11.7224Z" fill="#11894F"/>
<path d="M12.3338 10.3333L12.6672 12.4444C12.7227 12.7778 12.3894 13 12.1116 12.8889L10.2227 11.8889C10.1116 11.8333 9.94493 11.8333 9.83382 11.8889L7.94493 12.8889C7.66715 13.0556 7.33382 12.7778 7.38938 12.4444L7.72271 10.3333C7.72271 10.2222 7.72271 10.0556 7.6116 10L6.05604 8.5C5.83382 8.27778 5.94493 7.88889 6.27827 7.83333L8.38938 7.5C8.50049 7.5 8.6116 7.38889 8.66715 7.27778L9.6116 5.33333C9.77826 5.05556 10.1672 5.05556 10.3338 5.33333L11.2783 7.27778C11.3338 7.38889 11.4449 7.5 11.556 7.5L13.6672 7.83333C14.0005 7.88889 14.1116 8.27778 13.8894 8.5L12.4449 10C12.3338 10.0556 12.2783 10.2222 12.3338 10.3333Z" fill="#B9FFDD"/>
<path opacity="0.5" d="M6.44459 8.55578C6.22237 8.33355 6.33348 8.00022 6.66681 7.94466L8.5557 7.66689C8.66681 7.66689 8.77793 7.55578 8.83348 7.50022L9.66682 5.778C9.77793 5.50022 10.1668 5.50022 10.2779 5.778L11.1113 7.50022C11.1668 7.61133 11.2779 7.66689 11.389 7.66689L13.2779 7.94466C13.5557 8.00022 13.6668 8.33355 13.5001 8.55578C13.5001 8.55578 12.2779 9.88911 9.88904 9.88911C8.0557 9.88911 6.44459 8.55578 6.44459 8.55578Z" fill="white"/>
<path opacity="0.7" d="M10.0553 6.9449C9.88861 7.33379 9.61083 7.61157 9.49972 7.55602C9.38861 7.50046 9.33305 7.11157 9.49972 6.72268C9.66639 6.33379 9.94416 6.05602 10.0553 6.11157C10.1664 6.16713 10.2219 6.55602 10.0553 6.9449Z" fill="white"/>
<path d="M6.94423 5.16672C6.77756 5.16672 6.66645 5.22228 6.55534 5.27783C6.61089 5.33339 7.05534 5.77783 6.99978 5.83339C6.94423 5.88894 6.49978 5.4445 6.44423 5.38894C6.38867 5.50005 6.33312 5.61117 6.33312 5.77783C6.33312 6.38894 6.27756 6.77783 6.16645 6.77783C6.11089 6.77783 6.05534 6.38894 5.99978 5.77783C5.99978 5.61117 5.94423 5.50005 5.88867 5.38894C5.83312 5.4445 5.38867 5.88894 5.33312 5.83339C5.27756 5.77783 5.72201 5.33339 5.77756 5.27783C5.66645 5.22228 5.55534 5.16672 5.38867 5.16672C4.05534 5.11117 4.05534 4.9445 5.38867 4.88894C5.49978 4.88894 5.66645 4.83339 5.77756 4.77783C5.72201 4.72228 5.27756 4.27783 5.33312 4.22228C5.38867 4.16672 5.83312 4.61117 5.88867 4.66672C5.94423 4.55561 5.99978 4.4445 5.99978 4.27783C6.05534 2.9445 6.22201 2.9445 6.27756 4.27783C6.27756 4.38894 6.33312 4.55561 6.38867 4.66672C6.44423 4.61117 6.88867 4.16672 6.94423 4.22228C6.99978 4.27783 6.83312 4.50005 6.55534 4.77783V4.83339C6.66645 4.88894 6.77756 4.9445 6.94423 4.9445C7.55534 4.9445 7.94423 5.00005 7.94423 5.11117C7.94423 5.11117 7.55534 5.16672 6.94423 5.16672Z" fill="white"/>
<path opacity="0.2" d="M16.7782 6.16705C15.3893 3.50038 12.7782 1.94482 10.0004 1.94482C7.22266 1.94482 4.61155 3.50038 3.22266 6.11149C4.11155 3.55594 6.77821 1.50038 10.0004 1.44482C13.2227 1.50038 15.8338 3.55594 16.7782 6.16705Z" fill="white"/>
</svg>
