<svg width="24" height="24" viewBox="0 0 24 24" fill="none" xmlns="http://www.w3.org/2000/svg">
<path d="M12 3.8408L3.43699 12.4038L12 20.9668L20.563 12.4038L12 3.8408ZM12.7135 1.69929L22.7045 11.6903C22.8937 11.8796 23 12.1362 23 12.4038C23 12.6714 22.8937 12.9281 22.7045 13.1173L12.7135 23.1083C12.5242 23.2975 12.2676 23.4038 12 23.4038C11.7324 23.4038 11.4758 23.2975 11.2865 23.1083L1.29548 13.1173C1.10628 12.9281 1 12.6714 1 12.4038C1 12.1362 1.10628 11.8796 1.29548 11.6903L11.2865 1.69929C11.4758 1.51009 11.7324 1.40381 12 1.40381C12.2676 1.40381 12.5242 1.51009 12.7135 1.69929ZM13.0092 10.3854V7.86244L16.5414 11.3946L13.0092 14.9268V12.4038H9.98161V15.4314H7.96322V11.3946C7.96322 11.127 8.06955 10.8703 8.25881 10.681C8.44807 10.4917 8.70476 10.3854 8.97242 10.3854H13.0092Z" fill="#25C979"/>
</svg>
