<svg width="12" height="13" viewBox="0 0 12 13" fill="none" xmlns="http://www.w3.org/2000/svg">
<path d="M8.79825 7.08363C10.3339 7.08363 11.5823 8.31593 11.5823 9.83181C11.5823 11.3468 10.3339 12.58 8.79825 12.58C7.26256 12.58 6.01416 11.3468 6.01416 9.83181C6.01416 8.31593 7.26256 7.08363 8.79825 7.08363ZM8.79825 8.37265C7.98253 8.37265 7.32002 9.02661 7.32002 9.83181C7.32002 10.6362 7.98253 11.291 8.79825 11.291C9.61398 11.291 10.2765 10.6362 10.2765 9.83181C10.2765 9.02661 9.61398 8.37265 8.79825 8.37265ZM6.00669 9.18705C6.36711 9.18705 6.65962 9.47579 6.65962 9.83156C6.65962 10.1873 6.36711 10.4761 6.00669 10.4761H0.653539C0.293122 10.4761 0.000609401 10.1873 0.000609401 9.83156C0.000609401 9.47579 0.293122 9.18705 0.653539 9.18705H6.00669ZM2.78409 0C4.31978 0 5.56818 1.23316 5.56818 2.74818C5.56818 4.26321 4.31978 5.49637 2.78409 5.49637C1.24927 5.49637 0 4.26321 0 2.74818C0 1.23316 1.24927 0 2.78409 0ZM2.78409 1.28902C1.96924 1.28902 1.30586 1.94384 1.30586 2.74818C1.30586 3.55253 1.96924 4.20735 2.78409 4.20735C3.59982 4.20735 4.26232 3.55253 4.26232 2.74818C4.26232 1.94384 3.59982 1.28902 2.78409 1.28902ZM10.9297 2.10385C11.2901 2.10385 11.5826 2.39259 11.5826 2.74836C11.5826 3.10413 11.2901 3.39287 10.9297 3.39287H5.57566C5.21524 3.39287 4.92273 3.10413 4.92273 2.74836C4.92273 2.39259 5.21524 2.10385 5.57566 2.10385H10.9297Z" fill="#007A55"/>
</svg>
