<svg width="20" height="20" viewBox="0 0 20 20" fill="none" xmlns="http://www.w3.org/2000/svg">
<path d="M16.6667 6.6665H3.33333C2.8731 6.6665 2.5 7.0396 2.5 7.49984V9.1665C2.5 9.62674 2.8731 9.99984 3.33333 9.99984H16.6667C17.1269 9.99984 17.5 9.62674 17.5 9.1665V7.49984C17.5 7.0396 17.1269 6.6665 16.6667 6.6665Z" stroke="#181C1C" stroke-width="2" stroke-linecap="round" stroke-linejoin="round"/>
<path d="M10 6.6665V17.4998" stroke="#181C1C" stroke-width="2" stroke-linecap="round" stroke-linejoin="round"/>
<path d="M15.8337 10V15.8333C15.8337 16.2754 15.6581 16.6993 15.3455 17.0118C15.0329 17.3244 14.609 17.5 14.167 17.5H5.83366C5.39163 17.5 4.96771 17.3244 4.65515 17.0118C4.34259 16.6993 4.16699 16.2754 4.16699 15.8333V10" stroke="#181C1C" stroke-width="2" stroke-linecap="round" stroke-linejoin="round"/>
<path d="M6.25033 6.66654C5.69779 6.66654 5.16789 6.44705 4.77719 6.05635C4.38649 5.66565 4.16699 5.13574 4.16699 4.58321C4.16699 4.03068 4.38649 3.50077 4.77719 3.11007C5.16789 2.71937 5.69779 2.49988 6.25033 2.49988C7.05423 2.48587 7.84201 2.87593 8.51094 3.61918C9.17986 4.36243 9.69889 5.42438 10.0003 6.66654C10.3018 5.42438 10.8208 4.36243 11.4897 3.61918C12.1586 2.87593 12.9464 2.48587 13.7503 2.49988C14.3029 2.49988 14.8328 2.71937 15.2235 3.11007C15.6142 3.50077 15.8337 4.03068 15.8337 4.58321C15.8337 5.13574 15.6142 5.66565 15.2235 6.05635C14.8328 6.44705 14.3029 6.66654 13.7503 6.66654" stroke="#181C1C" stroke-width="2" stroke-linecap="round" stroke-linejoin="round"/>
</svg>
