<svg width="88" height="88" viewBox="0 0 88 88" fill="none" xmlns="http://www.w3.org/2000/svg">
<g filter="url(#filter0_dd_124_1937)">
<path d="M12 18C12 9.16343 19.1634 2 28 2H59.9867C68.8232 2 75.9867 9.16344 75.9867 18V49.9867C75.9867 58.8232 68.8232 65.9867 59.9867 65.9867H28C19.1634 65.9867 12 58.8232 12 49.9867V18Z" fill="url(#paint0_linear_124_1937)" shape-rendering="crispEdges"/>
<path d="M47.193 37.1925L40.7935 30.793" stroke="white" stroke-width="2.66647" stroke-linecap="round" stroke-linejoin="round"/>
<path d="M52.8687 46.6383C52.3687 47.1385 51.6905 47.4196 50.9833 47.4197C50.2761 47.4198 49.5978 47.139 49.0976 46.639C48.5974 46.139 48.3164 45.4608 48.3163 44.7536C48.3161 44.0464 48.597 43.3681 49.0969 42.8679L46.7411 45.2251C46.2409 45.7253 45.5626 46.0063 44.8552 46.0063C44.1479 46.0063 43.4695 45.7253 42.9694 45.2251C42.4692 44.7249 42.1882 44.0466 42.1882 43.3392C42.1882 42.6319 42.4692 41.9535 42.9694 41.4534L51.4541 32.9687C51.9543 32.4685 52.6326 32.1875 53.34 32.1875C54.0473 32.1875 54.7257 32.4685 55.2258 32.9687C55.726 33.4688 56.007 34.1472 56.007 34.8545C56.007 35.5619 55.726 36.2402 55.2258 36.7404L52.8687 39.0962C53.3688 38.5962 54.0471 38.3154 54.7543 38.3155C55.4616 38.3157 56.1397 38.5967 56.6397 39.0969C57.1397 39.597 57.4205 40.2753 57.4204 40.9825C57.4203 41.6898 57.1392 42.368 56.6391 42.8679L52.8687 46.6383Z" stroke="white" stroke-width="2.66647" stroke-linecap="round" stroke-linejoin="round"/>
<path d="M56.659 46.6585L54.7925 44.792" stroke="white" stroke-width="2.66647" stroke-linecap="round" stroke-linejoin="round"/>
<path d="M33.1939 23.1937L31.3274 21.3271" stroke="white" stroke-width="2.66647" stroke-linecap="round" stroke-linejoin="round"/>
<path d="M36.5325 35.0165C36.0323 35.5166 35.3539 35.7976 34.6466 35.7976C33.9393 35.7976 33.2609 35.5166 32.7607 35.0165C32.2606 34.5163 31.9796 33.8379 31.9796 33.1306C31.9796 32.4233 32.2606 31.7449 32.7607 31.2447L35.1179 28.8889C34.8702 29.1365 34.5763 29.3328 34.2527 29.4668C33.9292 29.6007 33.5824 29.6696 33.2322 29.6696C32.525 29.6695 31.8468 29.3884 31.3468 28.8882C31.0993 28.6406 30.9029 28.3466 30.769 28.023C30.635 27.6995 30.5661 27.3527 30.5662 27.0026C30.5663 26.2954 30.8473 25.6172 31.3475 25.1172L35.1179 21.3468C35.6179 20.8466 36.2961 20.5656 37.0033 20.5654C37.3535 20.5654 37.7002 20.6343 38.0238 20.7682C38.3473 20.9022 38.6413 21.0985 38.889 21.3461C39.1366 21.5937 39.3331 21.8876 39.4672 22.2111C39.6012 22.5346 39.6702 22.8813 39.6703 23.2315C39.6704 23.5817 39.6015 23.9284 39.4675 24.252C39.3336 24.5755 39.1372 24.8695 38.8896 25.1172L41.2455 22.76C41.7456 22.2598 42.424 21.9789 43.1313 21.9789C43.8387 21.9789 44.517 22.2598 45.0172 22.76C45.5174 23.2602 45.7983 23.9385 45.7983 24.6459C45.7983 25.3532 45.5174 26.0316 45.0172 26.5317L36.5325 35.0165Z" stroke="white" stroke-width="2.66647" stroke-linecap="round" stroke-linejoin="round"/>
</g>
<defs>
<filter id="filter0_dd_124_1937" x="0" y="0" width="87.9866" height="87.9863" filterUnits="userSpaceOnUse" color-interpolation-filters="sRGB">
<feFlood flood-opacity="0" result="BackgroundImageFix"/>
<feColorMatrix in="SourceAlpha" type="matrix" values="0 0 0 0 0 0 0 0 0 0 0 0 0 0 0 0 0 0 127 0" result="hardAlpha"/>
<feMorphology radius="4" operator="erode" in="SourceAlpha" result="effect1_dropShadow_124_1937"/>
<feOffset dy="4"/>
<feGaussianBlur stdDeviation="3"/>
<feComposite in2="hardAlpha" operator="out"/>
<feColorMatrix type="matrix" values="0 0 0 0 0 0 0 0 0 0 0 0 0 0 0 0 0 0 0.1 0"/>
<feBlend mode="normal" in2="BackgroundImageFix" result="effect1_dropShadow_124_1937"/>
<feColorMatrix in="SourceAlpha" type="matrix" values="0 0 0 0 0 0 0 0 0 0 0 0 0 0 0 0 0 0 127 0" result="hardAlpha"/>
<feMorphology radius="3" operator="erode" in="SourceAlpha" result="effect2_dropShadow_124_1937"/>
<feOffset dy="10"/>
<feGaussianBlur stdDeviation="7.5"/>
<feComposite in2="hardAlpha" operator="out"/>
<feColorMatrix type="matrix" values="0 0 0 0 0 0 0 0 0 0 0 0 0 0 0 0 0 0 0.1 0"/>
<feBlend mode="normal" in2="effect1_dropShadow_124_1937" result="effect2_dropShadow_124_1937"/>
<feBlend mode="normal" in="SourceGraphic" in2="effect2_dropShadow_124_1937" result="shape"/>
</filter>
<linearGradient id="paint0_linear_124_1937" x1="12" y1="2" x2="75.9867" y2="65.9867" gradientUnits="userSpaceOnUse">
<stop stop-color="#155DFC"/>
<stop offset="1" stop-color="#2B7FFF"/>
</linearGradient>
</defs>
</svg>
