<svg width="34" height="34" viewBox="0 0 34 34" fill="none" xmlns="http://www.w3.org/2000/svg">
<path d="M29.5329 12.7205L30.4246 11.8289C30.8102 11.4433 31.0229 10.9291 31.0229 10.3833C31.0229 9.83644 30.8102 9.32343 30.4234 8.93779L28.57 7.0844L29.5119 6.14251C29.731 5.92338 29.8541 5.62619 29.8541 5.31631C29.8541 5.00642 29.731 4.70923 29.5119 4.49011C29.2928 4.27099 28.9956 4.14789 28.6857 4.14789C28.3758 4.14789 28.0786 4.27099 27.8595 4.49011L26.9176 5.432L25.0654 3.57977C24.293 2.80733 22.9467 2.80616 22.1731 3.57977L21.2815 4.47141L20.9753 4.16524C20.204 3.3928 18.8566 3.39163 18.083 4.16524L17.3982 4.85004C17.0155 5.23402 16.8006 5.75404 16.8006 6.29618C16.8006 6.83831 17.0155 7.35834 17.3982 7.74232L21.0045 11.3486L11.3426 21.0106L7.73626 17.3996C7.35233 17.0173 6.83255 16.8026 6.29071 16.8026C5.74886 16.8026 5.22908 17.0173 4.84515 17.3996L4.16035 18.0844C3.96976 18.274 3.81865 18.4994 3.71574 18.7477C3.61284 18.9961 3.5602 19.2623 3.56086 19.5311C3.56086 20.078 3.77355 20.591 4.16035 20.9767L4.46769 21.284L3.57605 22.1757C3.18925 22.5613 2.97656 23.0755 2.97656 23.6212C2.97656 24.1681 3.18925 24.6811 3.57605 25.0668L5.42945 26.9202L4.48756 27.8621C4.37906 27.9706 4.293 28.0994 4.23428 28.2411C4.17556 28.3829 4.14534 28.5348 4.14534 28.6883C4.14534 28.8417 4.17556 28.9936 4.23428 29.1354C4.293 29.2772 4.37906 29.406 4.48756 29.5145C4.59606 29.623 4.72486 29.709 4.86662 29.7677C5.00838 29.8265 5.16032 29.8567 5.31376 29.8567C5.4672 29.8567 5.61913 29.8265 5.76089 29.7677C5.90265 29.709 6.03146 29.623 6.13996 29.5145L7.08185 28.5726L8.93407 30.4248C9.32088 30.8128 9.83389 31.0255 10.3808 31.0255C10.9265 31.0255 11.4407 30.8128 11.8264 30.426L12.718 29.5343L13.0242 29.8405C13.411 30.2273 13.924 30.44 14.4709 30.44C15.0166 30.44 15.5308 30.2273 15.9164 29.8405L16.6012 29.1557C16.984 28.7717 17.1989 28.2517 17.1989 27.7096C17.1989 27.1674 16.984 26.6474 16.6012 26.2634L12.995 22.6571L22.6569 12.9952L26.2632 16.6015C26.6617 16.9999 27.1852 17.1986 27.7088 17.1986C28.2323 17.1986 28.7558 16.9988 29.1543 16.6003L29.8391 15.9155C30.2259 15.5287 30.4386 15.0157 30.4386 14.4699C30.4386 13.923 30.2259 13.41 29.8391 13.0244L29.5329 12.7205Z" fill="#06522D"/>
</svg>
