<svg width="34" height="34" viewBox="0 0 34 34" fill="none" xmlns="http://www.w3.org/2000/svg">
<path d="M7.77535 29.1975C8.68379 29.1964 9.5547 28.835 10.1971 28.1926C10.8394 27.5503 11.2008 26.6794 11.2019 25.7709C11.2019 23.8818 9.66448 22.3444 7.77535 22.3444C5.88623 22.3444 4.34985 23.8818 4.34985 25.7709C4.35098 26.6792 4.7122 27.5499 5.35434 28.1922C5.99647 28.8346 6.8671 29.1961 7.77535 29.1975ZM7.77535 24.4694C8.4936 24.4694 9.07692 25.0537 9.07692 25.7709C9.07692 26.4881 8.49254 27.0725 7.77535 27.0725C7.05817 27.0725 6.47485 26.4881 6.47485 25.7709C6.47485 25.0537 7.05817 24.4694 7.77535 24.4694Z" fill="#178AD2"/>
<path d="M8.02198 32.4838H29.035C31.0219 32.4838 32.6879 31.0696 32.91 29.1933C33.0219 28.2999 32.8066 27.3962 32.3038 26.6493C31.8011 25.9024 31.0449 25.3628 30.1751 25.1303L11.5771 20.0579L13.0295 14.4511H21.758C22.4911 14.4502 23.194 14.1585 23.7123 13.64C24.2306 13.1215 24.522 12.4185 24.5226 11.6854C24.5218 10.9524 24.2302 10.2497 23.7119 9.73143C23.1936 9.21314 22.4909 8.9216 21.758 8.92075H14.4629L15.0919 6.494C15.133 6.33686 15.1375 6.17238 15.1051 6.01321C15.0726 5.85405 15.0041 5.70446 14.9047 5.57595C14.8054 5.44744 14.6779 5.34345 14.532 5.27199C14.3861 5.20053 14.2258 5.1635 14.0634 5.16376L8.05279 5.16482L5.81623 1.96882C5.64843 1.75456 5.40487 1.61278 5.13569 1.57266C4.86652 1.53254 4.5922 1.59713 4.36921 1.75315C4.14622 1.90916 3.99151 2.14472 3.93694 2.41134C3.88238 2.67797 3.93209 2.95537 4.07586 3.18644L6.62904 6.83613C6.72704 6.97629 6.85741 7.09072 7.00909 7.1697C7.16077 7.24869 7.32928 7.28989 7.50029 7.28982H9.12486L5.93948 19.5532C5.11493 19.7806 4.33966 20.1588 3.65298 20.6688C2.04436 21.8737 1.10086 23.6863 1.06261 25.6445C1.05729 25.9048 1.06792 26.1683 1.09448 26.4339C1.42067 29.8265 4.46473 32.4838 8.02198 32.4838ZM13.9114 11.0458H21.758C22.1107 11.0458 22.3976 11.3326 22.3976 11.6854C22.3957 11.8545 22.3277 12.0162 22.2082 12.1359C22.0887 12.2556 21.9271 12.3239 21.758 12.3261H13.5789L13.9114 11.0458ZM11.32 7.28875H12.6885L9.52542 19.5043C9.0915 19.3935 8.6477 19.3259 8.20048 19.3024L11.32 7.28875ZM4.92692 22.3688C5.76349 21.7455 6.77898 21.409 7.82223 21.4094C8.23979 21.4094 8.65842 21.4636 9.06536 21.5751L29.6162 27.1798C29.993 27.281 30.3205 27.5151 30.538 27.8389C30.7556 28.1627 30.8486 28.5544 30.7999 28.9414C30.7053 29.7373 29.9307 30.3588 29.035 30.3588H8.02304C5.54742 30.3588 3.43304 28.5451 3.20992 26.2299C3.19229 26.0485 3.18519 25.8661 3.18867 25.6838C3.21311 24.3674 3.83042 23.1901 4.92692 22.3688Z" fill="#178AD2"/>
</svg>
