<svg width="40" height="40" viewBox="0 0 40 40" fill="none" xmlns="http://www.w3.org/2000/svg">
<path d="M0 20C0 8.95431 8.95431 0 20 0V0C31.0457 0 40 8.95431 40 20V20C40 31.0457 31.0457 40 20 40V40C8.95431 40 0 31.0457 0 20V20Z" fill="#F0FDFA"/>
<path d="M26.6693 18.3307C26.6693 22.4916 22.0534 26.8249 20.5034 28.1632C20.359 28.2718 20.1833 28.3305 20.0026 28.3305C19.8219 28.3305 19.6462 28.2718 19.5018 28.1632C17.9518 26.8249 13.3359 22.4916 13.3359 18.3307C13.3359 16.5626 14.0383 14.8669 15.2886 13.6167C16.5388 12.3664 18.2345 11.6641 20.0026 11.6641C21.7707 11.6641 23.4664 12.3664 24.7166 13.6167C25.9669 14.8669 26.6693 16.5626 26.6693 18.3307Z" stroke="#009689" stroke-width="1.66667" stroke-linecap="round" stroke-linejoin="round"/>
<path d="M20 20.8359C21.3807 20.8359 22.5 19.7166 22.5 18.3359C22.5 16.9552 21.3807 15.8359 20 15.8359C18.6193 15.8359 17.5 16.9552 17.5 18.3359C17.5 19.7166 18.6193 20.8359 20 20.8359Z" stroke="#009689" stroke-width="1.66667" stroke-linecap="round" stroke-linejoin="round"/>
</svg>
