<svg width="20" height="20" viewBox="0 0 20 20" fill="none" xmlns="http://www.w3.org/2000/svg">
<g clip-path="url(#clip0_193_3612)">
<path d="M16.6536 8.32707C16.6536 12.4847 12.0414 16.8147 10.4926 18.152C10.3483 18.2605 10.1726 18.3192 9.99211 18.3192C9.81158 18.3192 9.63594 18.2605 9.49166 18.152C7.94285 16.8147 3.33057 12.4847 3.33057 8.32707C3.33057 6.56032 4.03241 4.86593 5.28169 3.61665C6.53097 2.36737 8.22536 1.66553 9.99211 1.66553C11.7589 1.66553 13.4532 2.36737 14.7025 3.61665C15.9518 4.86593 16.6536 6.56032 16.6536 8.32707Z" stroke="#90A1B9" stroke-width="1.66538" stroke-linecap="round" stroke-linejoin="round"/>
<path d="M9.99222 10.8248C11.3719 10.8248 12.4903 9.70634 12.4903 8.32669C12.4903 6.94704 11.3719 5.82861 9.99222 5.82861C8.61257 5.82861 7.49414 6.94704 7.49414 8.32669C7.49414 9.70634 8.61257 10.8248 9.99222 10.8248Z" stroke="#90A1B9" stroke-width="1.66538" stroke-linecap="round" stroke-linejoin="round"/>
</g>
<defs>
<clipPath id="clip0_193_3612">
<rect width="19.9846" height="19.9846" fill="white"/>
</clipPath>
</defs>
</svg>
