<svg width="148" height="148" viewBox="0 0 148 148" fill="none" xmlns="http://www.w3.org/2000/svg">
<g filter="url(#filter0_d_205_633)">
<path d="M38 33C38 21.9543 46.9543 13 58 13H90C101.046 13 110 21.9543 110 33V65C110 76.0457 101.046 85 90 85H58C46.9543 85 38 76.0457 38 65V33Z" fill="url(#paint0_linear_205_633)" shape-rendering="crispEdges"/>
<path d="M78 53L70 45" stroke="black" stroke-width="3.33333" stroke-linecap="round" stroke-linejoin="round"/>
<path d="M85.0937 64.807C84.4687 65.4323 83.6209 65.7836 82.7368 65.7838C81.8527 65.7839 81.0048 65.4329 80.3795 64.8079C79.7543 64.1828 79.4029 63.335 79.4028 62.451C79.4026 61.5669 79.7537 60.7189 80.3787 60.0937L77.4337 63.0404C76.8084 63.6656 75.9604 64.0169 75.0762 64.0169C74.192 64.0169 73.3439 63.6656 72.7187 63.0404C72.0934 62.4151 71.7422 61.5671 71.7422 60.6829C71.7422 59.7986 72.0934 58.9506 72.7187 58.3254L83.3254 47.7187C83.9506 47.0934 84.7986 46.7422 85.6829 46.7422C86.5671 46.7422 87.4151 47.0934 88.0404 47.7187C88.6656 48.3439 89.0169 49.192 89.0169 50.0762C89.0169 50.9604 88.6656 51.8084 88.0404 52.4337L85.0937 55.3787C85.7189 54.7537 86.5669 54.4026 87.451 54.4028C88.335 54.4029 89.1828 54.7543 89.8079 55.3795C90.4329 56.0048 90.7839 56.8527 90.7838 57.7368C90.7836 58.6209 90.4323 59.4687 89.807 60.0937L85.0937 64.807Z" stroke="black" stroke-width="3.33333" stroke-linecap="round" stroke-linejoin="round"/>
<path d="M89.8333 64.8333L87.5 62.5" stroke="black" stroke-width="3.33333" stroke-linecap="round" stroke-linejoin="round"/>
<path d="M60.4974 35.4974L58.1641 33.1641" stroke="black" stroke-width="3.33333" stroke-linecap="round" stroke-linejoin="round"/>
<path d="M64.6772 50.2838C64.0519 50.9091 63.2039 51.2603 62.3197 51.2603C61.4354 51.2603 60.5874 50.9091 59.9622 50.2838C59.3369 49.6586 58.9857 48.8106 58.9857 47.9263C58.9857 47.0421 59.3369 46.1941 59.9622 45.5688L62.9088 42.6238C62.5992 42.9333 62.2317 43.1788 61.8273 43.3462C61.4228 43.5137 60.9893 43.5998 60.5516 43.5998C59.6675 43.5996 58.8197 43.2483 58.1947 42.623C57.8852 42.3134 57.6397 41.9459 57.4723 41.5414C57.3048 41.137 57.2187 40.7035 57.2188 40.2657C57.2189 39.3817 57.5703 38.5339 58.1955 37.9088L62.9088 33.1955C63.5339 32.5703 64.3817 32.2189 65.2657 32.2188C65.7035 32.2187 66.137 32.3048 66.5414 32.4723C66.9459 32.6397 67.3134 32.8852 67.623 33.1947C67.9326 33.5042 68.1782 33.8716 68.3458 34.276C68.5134 34.6804 68.5997 35.1138 68.5998 35.5516C68.5998 35.9893 68.5137 36.4228 68.3462 36.8273C68.1788 37.2317 67.9333 37.5992 67.6238 37.9088L70.5688 34.9622C71.1941 34.3369 72.0421 33.9857 72.9263 33.9857C73.8106 33.9857 74.6586 34.3369 75.2838 34.9622C75.9091 35.5874 76.2603 36.4354 76.2603 37.3197C76.2603 38.2039 75.9091 39.0519 75.2838 39.6772L64.6772 50.2838Z" stroke="black" stroke-width="3.33333" stroke-linecap="round" stroke-linejoin="round"/>
</g>
<defs>
<filter id="filter0_d_205_633" x="0" y="0" width="148" height="148" filterUnits="userSpaceOnUse" color-interpolation-filters="sRGB">
<feFlood flood-opacity="0" result="BackgroundImageFix"/>
<feColorMatrix in="SourceAlpha" type="matrix" values="0 0 0 0 0 0 0 0 0 0 0 0 0 0 0 0 0 0 127 0" result="hardAlpha"/>
<feMorphology radius="12" operator="erode" in="SourceAlpha" result="effect1_dropShadow_205_633"/>
<feOffset dy="25"/>
<feGaussianBlur stdDeviation="25"/>
<feComposite in2="hardAlpha" operator="out"/>
<feColorMatrix type="matrix" values="0 0 0 0 0 0 0 0 0 0 0 0 0 0 0 0 0 0 0.25 0"/>
<feBlend mode="normal" in2="BackgroundImageFix" result="effect1_dropShadow_205_633"/>
<feBlend mode="normal" in="SourceGraphic" in2="effect1_dropShadow_205_633" result="shape"/>
</filter>
<linearGradient id="paint0_linear_205_633" x1="74" y1="13" x2="74" y2="85" gradientUnits="userSpaceOnUse">
<stop stop-color="#00C9A7"/>
<stop offset="1" stop-color="#00A88A"/>
</linearGradient>
</defs>
</svg>
