<svg width="44" height="44" viewBox="0 0 44 44" fill="none" xmlns="http://www.w3.org/2000/svg">
<path d="M0 14C0 6.26801 6.26801 0 14 0H30C37.732 0 44 6.26801 44 14V30C44 37.732 37.732 44 30 44H14C6.26801 44 0 37.732 0 30V14Z" fill="#6CFEB7"/>
<path d="M21.5624 13.2662C21.6056 13.1878 21.669 13.1224 21.746 13.0769C21.8231 13.0313 21.9109 13.0073 22.0004 13.0073C22.0899 13.0073 22.1778 13.0313 22.2548 13.0769C22.3319 13.1224 22.3953 13.1878 22.4384 13.2662L25.3904 18.8702C25.4608 18.9999 25.5591 19.1125 25.6781 19.1998C25.7972 19.2871 25.9341 19.3469 26.079 19.375C26.224 19.4031 26.3733 19.3988 26.5164 19.3623C26.6594 19.3259 26.7926 19.2582 26.9064 19.1642L31.1834 15.5002C31.2655 15.4334 31.3667 15.3944 31.4724 15.3888C31.5781 15.3832 31.6828 15.4112 31.7715 15.4689C31.8602 15.5266 31.9284 15.611 31.9661 15.7099C32.0038 15.8087 32.0092 15.917 31.9814 16.0192L29.1474 26.2652C29.0896 26.4748 28.9649 26.6599 28.7924 26.7924C28.6199 26.9248 28.4089 26.9974 28.1914 26.9992H15.8104C15.5928 26.9977 15.3815 26.9252 15.2088 26.7927C15.0361 26.6602 14.9113 26.475 14.8534 26.2652L12.0204 16.0202C11.9927 15.918 11.998 15.8097 12.0358 15.7109C12.0735 15.612 12.1416 15.5276 12.2303 15.4699C12.319 15.4122 12.4238 15.3842 12.5295 15.3898C12.6351 15.3954 12.7363 15.4344 12.8184 15.5012L17.0944 19.1652C17.2082 19.2592 17.3414 19.3269 17.4845 19.3633C17.6275 19.3998 17.7769 19.4041 17.9218 19.376C18.0668 19.3479 18.2037 19.2881 18.3227 19.2008C18.4418 19.1135 18.54 19.0009 18.6104 18.8712L21.5624 13.2662Z" stroke="#181C1C" stroke-width="2" stroke-linecap="round" stroke-linejoin="round"/>
<path d="M15 31H29" stroke="#181C1C" stroke-width="2" stroke-linecap="round" stroke-linejoin="round"/>
</svg>
