<svg width="20" height="20" viewBox="0 0 20 20" fill="none" xmlns="http://www.w3.org/2000/svg">
<path d="M5.83333 2.5H3.33333C2.8731 2.5 2.5 2.8731 2.5 3.33333V5.83333C2.5 6.29357 2.8731 6.66667 3.33333 6.66667H5.83333C6.29357 6.66667 6.66667 6.29357 6.66667 5.83333V3.33333C6.66667 2.8731 6.29357 2.5 5.83333 2.5Z" stroke="black" stroke-width="1.66667" stroke-linecap="round" stroke-linejoin="round"/>
<path d="M16.6668 2.5H14.1668C13.7066 2.5 13.3335 2.8731 13.3335 3.33333V5.83333C13.3335 6.29357 13.7066 6.66667 14.1668 6.66667H16.6668C17.1271 6.66667 17.5002 6.29357 17.5002 5.83333V3.33333C17.5002 2.8731 17.1271 2.5 16.6668 2.5Z" stroke="black" stroke-width="1.66667" stroke-linecap="round" stroke-linejoin="round"/>
<path d="M5.83333 13.3333H3.33333C2.8731 13.3333 2.5 13.7063 2.5 14.1666V16.6666C2.5 17.1268 2.8731 17.4999 3.33333 17.4999H5.83333C6.29357 17.4999 6.66667 17.1268 6.66667 16.6666V14.1666C6.66667 13.7063 6.29357 13.3333 5.83333 13.3333Z" stroke="black" stroke-width="1.66667" stroke-linecap="round" stroke-linejoin="round"/>
<path d="M17.5002 13.3333H15.0002C14.5581 13.3333 14.1342 13.5088 13.8217 13.8214C13.5091 14.134 13.3335 14.5579 13.3335 14.9999V17.4999" stroke="black" stroke-width="1.66667" stroke-linecap="round" stroke-linejoin="round"/>
<path d="M17.5 17.5V17.5083" stroke="black" stroke-width="1.66667" stroke-linecap="round" stroke-linejoin="round"/>
<path d="M10.0002 5.83325V8.33325C10.0002 8.77528 9.82457 9.1992 9.51201 9.51176C9.19945 9.82432 8.77552 9.99992 8.3335 9.99992H5.8335" stroke="black" stroke-width="1.66667" stroke-linecap="round" stroke-linejoin="round"/>
<path d="M2.5 10H2.50833" stroke="black" stroke-width="1.66667" stroke-linecap="round" stroke-linejoin="round"/>
<path d="M10 2.5H10.0083" stroke="black" stroke-width="1.66667" stroke-linecap="round" stroke-linejoin="round"/>
<path d="M10 13.3333V13.3416" stroke="black" stroke-width="1.66667" stroke-linecap="round" stroke-linejoin="round"/>
<path d="M13.3335 10H14.1668" stroke="black" stroke-width="1.66667" stroke-linecap="round" stroke-linejoin="round"/>
<path d="M17.5 10V10.0083" stroke="black" stroke-width="1.66667" stroke-linecap="round" stroke-linejoin="round"/>
<path d="M10 17.5001V16.6667" stroke="black" stroke-width="1.66667" stroke-linecap="round" stroke-linejoin="round"/>
</svg>
