<svg width="14" height="14" viewBox="0 0 14 14" fill="none" xmlns="http://www.w3.org/2000/svg">
<g clip-path="url(#clip0_95_3952)">
<path d="M6.72295 1.33853C6.74851 1.28688 6.788 1.2434 6.83696 1.21301C6.88592 1.18261 6.9424 1.1665 7.00003 1.1665C7.05766 1.1665 7.11414 1.18261 7.1631 1.21301C7.21206 1.2434 7.25155 1.28688 7.27712 1.33853L8.62462 4.06794C8.71339 4.24759 8.84442 4.40301 9.00648 4.52087C9.16854 4.63873 9.35677 4.71551 9.55503 4.74461L12.5685 5.18561C12.6256 5.19388 12.6793 5.21797 12.7234 5.25514C12.7675 5.29232 12.8004 5.34109 12.8182 5.39596C12.8361 5.45083 12.8382 5.5096 12.8244 5.56561C12.8106 5.62163 12.7813 5.67266 12.74 5.71294L10.5607 7.83511C10.417 7.97517 10.3094 8.14806 10.2474 8.33889C10.1853 8.52973 10.1705 8.73279 10.2043 8.93061L10.7188 11.9289C10.7289 11.986 10.7227 12.0448 10.701 12.0985C10.6793 12.1522 10.6429 12.1988 10.596 12.2329C10.5491 12.2669 10.4936 12.2871 10.4358 12.2911C10.378 12.2952 10.3202 12.2828 10.269 12.2556L7.5752 10.8393C7.3977 10.7461 7.20022 10.6974 6.99974 10.6974C6.79926 10.6974 6.60178 10.7461 6.42428 10.8393L3.73103 12.2556C3.67989 12.2827 3.62218 12.2949 3.56446 12.2908C3.50674 12.2867 3.45133 12.2664 3.40454 12.2324C3.35774 12.1984 3.32143 12.1519 3.29975 12.0982C3.27806 12.0446 3.27187 11.9859 3.28187 11.9289L3.79578 8.93119C3.82973 8.73329 3.81502 8.53009 3.75293 8.33914C3.69084 8.14818 3.58322 7.9752 3.43937 7.83511L1.26003 5.71353C1.21838 5.67329 1.18886 5.62217 1.17484 5.56599C1.16083 5.5098 1.16287 5.4508 1.18075 5.39572C1.19862 5.34064 1.23161 5.29168 1.27594 5.25443C1.32028 5.21718 1.37419 5.19313 1.43153 5.18503L4.44445 4.74461C4.64293 4.71573 4.83143 4.63906 4.99371 4.52118C5.15599 4.40331 5.28719 4.24777 5.37603 4.06794L6.72295 1.33853Z" fill="#F0B100" stroke="#F0B100" stroke-width="1.16667" stroke-linecap="round" stroke-linejoin="round"/>
</g>
<defs>
<clipPath id="clip0_95_3952">
<rect width="14" height="14" fill="white"/>
</clipPath>
</defs>
</svg>
