<svg width="20" height="20" viewBox="0 0 20 20" fill="none" xmlns="http://www.w3.org/2000/svg">
<path d="M1.99976 9.11111C1.99976 13.5556 5.55531 17.1111 9.99976 17.1111C14.3886 17.1111 17.9998 13.5556 17.9998 9.11111V10.8889C17.9998 15.3333 14.4442 18.8889 9.99976 18.8889C5.61087 18.8889 1.99976 15.3333 1.99976 10.8889V9.11111Z" fill="#097741"/>
<path d="M1.99976 9.11111C1.99976 13.5556 5.55531 17.1111 9.99976 17.1111C14.3886 17.1111 17.9998 13.5556 17.9998 9.11111V10.8889C17.9998 15.3333 14.4442 18.8889 9.99976 18.8889C5.61087 18.8889 1.99976 15.3333 1.99976 10.8889V9.11111Z" fill="#22B86F"/>
<path d="M9.99997 17.1111C8.38886 17.1111 6.83331 16.6111 5.61108 15.7778V17.5556C6.88886 18.3889 8.38886 18.8889 9.99997 18.8889C14.3889 18.8889 18 15.3333 18 10.8889V9.11111C18 13.5 14.3889 17.1111 9.99997 17.1111Z" fill="#029E52"/>
<path d="M11.3887 16.9445V18.7222C15.1109 18.0556 17.9998 14.7778 17.9998 10.8333V9.05556C17.9998 13.0556 15.1664 16.2778 11.3887 16.9445Z" fill="#22B86F"/>
<path d="M15.8887 14.5V16.2778C17.222 14.8333 17.9998 12.9444 17.9998 10.8889V9.11111C17.9998 11.1667 17.1664 13.0556 15.8887 14.5Z" fill="#029E52"/>
<path d="M18 9.11112C18 13.5556 14.4444 17.1111 9.99999 17.1111C5.99999 17.1111 2.72222 14.2222 2.11111 10.3889C1.33333 5.61112 4.99999 1.11112 9.99999 1.11112C13.3889 1.11112 16.3333 3.22223 17.4444 6.27779C17.8333 7.11112 18 8.11112 18 9.11112Z" fill="#6CFEB7"/>
<path opacity="0.4" d="M3.94434 13.1667C5.55545 15.1111 7.77767 16.1111 9.99989 16.1111C12.2221 16.1111 14.4443 15.1111 16.0554 13.1111C14.9443 15.1111 12.7221 16.5556 9.99989 16.6111C7.33322 16.6111 5.05545 15.1111 3.94434 13.1667Z" fill="white"/>
<path opacity="0.2" d="M16.7777 6.16667C15.3888 3.50001 12.7777 1.94445 9.99995 1.94445C7.22217 1.94445 4.61106 3.50001 3.22217 6.11112C4.11106 3.55556 6.77772 1.50001 9.99995 1.44445C13.2222 1.50001 15.8333 3.55556 16.7777 6.16667Z" fill="white"/>
<path opacity="0.4" d="M3.94434 13.1667C5.55545 15.1111 7.77767 16.1111 9.99989 16.1111C12.2221 16.1111 14.4443 15.1111 16.0554 13.1111C14.9443 15.1111 12.7221 16.5556 9.99989 16.6111C7.33322 16.6111 5.05545 15.1111 3.94434 13.1667Z" fill="white"/>
<path d="M16.0554 9.11112C16.0554 12.4445 13.3332 15.1667 9.99989 15.1667C6.66656 15.1667 3.94434 12.4445 3.94434 9.11112C3.94434 5.77779 6.66656 3.05556 9.99989 3.05556C13.3332 3.05556 16.0554 5.77779 16.0554 9.11112Z" fill="#22B86F"/>
<path d="M11.9998 10L12.3332 12.1111C12.3887 12.4445 12.0554 12.6667 11.7776 12.5556L9.88872 11.5556C9.77761 11.5 9.61095 11.5 9.49984 11.5556L7.61095 12.5556C7.33317 12.7222 6.99984 12.4445 7.05539 12.1111L7.38873 10C7.38873 9.88889 7.38873 9.72223 7.27761 9.66667L5.72206 8.16667C5.49984 7.94445 5.61095 7.55556 5.94428 7.50001L8.05539 7.16667C8.1665 7.16667 8.27761 7.05556 8.33317 6.94445L9.33317 5.00001C9.49984 4.72223 9.88873 4.72223 10.0554 5.00001L10.9998 6.94445C11.0554 7.05556 11.1665 7.16667 11.2776 7.16667L13.3887 7.50001C13.7221 7.55556 13.8332 7.94445 13.6109 8.16667L12.0554 9.66667C11.9998 9.72223 11.9443 9.88889 11.9998 10Z" fill="#11894F"/>
<path d="M15.4442 11.7222C17.0553 7.8889 14.222 3.55556 9.99978 3.55556C5.83312 3.55556 2.94423 7.77779 4.49978 11.6667C2.66645 7.66668 5.55534 3.05556 9.99978 3.05556C14.4998 3.05556 17.3887 7.77779 15.4442 11.7222Z" fill="#11894F"/>
<path d="M12.3333 10.3333L12.6667 12.4445C12.7222 12.7778 12.3889 13 12.1111 12.8889L10.2222 11.8889C10.1111 11.8333 9.94444 11.8333 9.83333 11.8889L7.94444 12.8889C7.66667 13.0556 7.33333 12.7778 7.38889 12.4445L7.72222 10.3333C7.72222 10.2222 7.72222 10.0556 7.61111 10L6.05555 8.50001C5.83333 8.27779 5.94444 7.8889 6.27778 7.83334L8.38889 7.50001C8.5 7.50001 8.61111 7.3889 8.66667 7.27779L9.61111 5.33334C9.77778 5.05556 10.1667 5.05556 10.3333 5.33334L11.2778 7.27779C11.3333 7.3889 11.4444 7.50001 11.5556 7.50001L13.6667 7.83334C14 7.8889 14.1111 8.27779 13.8889 8.50001L12.4444 10C12.3333 10.0556 12.2778 10.2222 12.3333 10.3333Z" fill="#B9FFDD"/>
<path opacity="0.5" d="M6.44423 8.55556C6.222 8.33334 6.33312 8.00001 6.66645 7.94445L8.55534 7.66667C8.66645 7.66667 8.77756 7.55556 8.83312 7.50001L9.66645 5.77778C9.77756 5.50001 10.1664 5.50001 10.2776 5.77778L11.1109 7.50001C11.1664 7.61112 11.2776 7.66667 11.3887 7.66667L13.2776 7.94445C13.5553 8.00001 13.6664 8.33334 13.4998 8.55556C13.4998 8.55556 12.2776 9.8889 9.88867 9.8889C8.05534 9.8889 6.44423 8.55556 6.44423 8.55556Z" fill="white"/>
<path opacity="0.7" d="M10.0555 6.94445C9.88885 7.33334 9.61107 7.61112 9.49996 7.55557C9.38885 7.50001 9.3333 7.11112 9.49996 6.72223C9.66663 6.33334 9.94441 6.05557 10.0555 6.11112C10.1666 6.16668 10.2222 6.55557 10.0555 6.94445Z" fill="white"/>
<path d="M6.94423 5.16668C6.77756 5.16668 6.66645 5.22223 6.55534 5.27779C6.61089 5.33334 7.05534 5.77779 6.99978 5.83334C6.94423 5.8889 6.49978 5.44445 6.44423 5.3889C6.38867 5.50001 6.33312 5.61112 6.33312 5.77779C6.33312 6.3889 6.27756 6.77779 6.16645 6.77779C6.11089 6.77779 6.05534 6.3889 5.99978 5.77779C5.99978 5.61112 5.94423 5.50001 5.88867 5.3889C5.83312 5.44445 5.38867 5.8889 5.33312 5.83334C5.27756 5.77779 5.72201 5.33334 5.77756 5.27779C5.66645 5.22223 5.55534 5.16668 5.38867 5.16668C4.05534 5.11112 4.05534 4.94445 5.38867 4.8889C5.49978 4.8889 5.66645 4.83334 5.77756 4.77779C5.72201 4.72223 5.27756 4.27779 5.33312 4.22223C5.38867 4.16668 5.83312 4.61112 5.88867 4.66668C5.94423 4.55556 5.99978 4.44445 5.99978 4.27779C6.05534 2.94445 6.22201 2.94445 6.27756 4.27779C6.27756 4.3889 6.33312 4.55556 6.38867 4.66668C6.44423 4.61112 6.88867 4.16668 6.94423 4.22223C6.99978 4.27779 6.83312 4.50001 6.55534 4.77779V4.83334C6.66645 4.8889 6.77756 4.94445 6.94423 4.94445C7.55534 4.94445 7.94423 5.00001 7.94423 5.11112C7.94423 5.11112 7.55534 5.16668 6.94423 5.16668Z" fill="white"/>
<path opacity="0.2" d="M16.7777 6.16667C15.3888 3.50001 12.7777 1.94445 9.99995 1.94445C7.22217 1.94445 4.61106 3.50001 3.22217 6.11112C4.11106 3.55556 6.77772 1.50001 9.99995 1.44445C13.2222 1.50001 15.8333 3.55556 16.7777 6.16667Z" fill="white"/>
</svg>
