<svg width="34" height="34" viewBox="0 0 34 34" fill="none" xmlns="http://www.w3.org/2000/svg">
<path d="M3.39966 15.4889C3.39966 23.0444 9.4441 29.0889 16.9997 29.0889C24.4608 29.0889 30.5997 23.0444 30.5997 15.4889V18.5111C30.5997 26.0667 24.5552 32.1111 16.9997 32.1111C9.53855 32.1111 3.39966 26.0667 3.39966 18.5111V15.4889Z" fill="#FFB961"/>
<path d="M3.39966 15.4889C3.39966 23.0444 9.4441 29.0889 16.9997 29.0889C24.4608 29.0889 30.5997 23.0444 30.5997 15.4889V18.5111C30.5997 26.0667 24.5552 32.1111 16.9997 32.1111C9.53855 32.1111 3.39966 26.0667 3.39966 18.5111V15.4889Z" fill="#F3A250"/>
<path d="M16.9997 29.0889C14.2608 29.0889 11.6164 28.2389 9.53857 26.8222V29.8444C11.7108 31.2611 14.2608 32.1111 16.9997 32.1111C24.4608 32.1111 30.5997 26.0667 30.5997 18.5111V15.4889C30.5997 22.95 24.4608 29.0889 16.9997 29.0889Z" fill="#EF7B56" fill-opacity="0.376471"/>
<path d="M19.3608 28.8056V31.8278C25.6886 30.6945 30.5997 25.1222 30.5997 18.4167V15.3945C30.5997 22.1945 25.7831 27.6722 19.3608 28.8056Z" fill="#F3A250"/>
<path d="M27.0107 24.65V27.6722C29.2774 25.2167 30.5996 22.0056 30.5996 18.5111V15.4889C30.5996 18.9833 29.183 22.1944 27.0107 24.65Z" fill="#EF7B56" fill-opacity="0.376471"/>
<path d="M30.5997 15.4889C30.5997 23.0445 24.5553 29.0889 16.9997 29.0889C10.1997 29.0889 4.62752 24.1778 3.58864 17.6611C2.26641 9.53892 8.49975 1.88892 16.9997 1.88892C22.7609 1.88892 27.7664 5.4778 29.6553 10.6722C30.3164 12.0889 30.5997 13.7889 30.5997 15.4889Z" fill="#F9CF6B"/>
<path opacity="0.4" d="M6.70532 22.3834C9.44421 25.6889 13.222 27.3889 16.9998 27.3889C20.7775 27.3889 24.5553 25.6889 27.2942 22.2889C25.4053 25.6889 21.6275 28.1445 16.9998 28.2389C12.4664 28.2389 8.59421 25.6889 6.70532 22.3834Z" fill="white"/>
<path opacity="0.2" d="M28.5217 10.4836C26.1606 5.95026 21.7217 3.30581 16.9995 3.30581C12.2773 3.30581 7.83841 5.95026 5.47729 10.3891C6.98841 6.0447 11.5217 2.55026 16.9995 2.45581C22.4773 2.55026 26.9162 6.0447 28.5217 10.4836Z" fill="white"/>
<path opacity="0.4" d="M6.70532 22.3834C9.44421 25.6889 13.222 27.3889 16.9998 27.3889C20.7775 27.3889 24.5553 25.6889 27.2942 22.2889C25.4053 25.6889 21.6275 28.1445 16.9998 28.2389C12.4664 28.2389 8.59421 25.6889 6.70532 22.3834Z" fill="white"/>
<path d="M27.2942 15.4889C27.2942 21.1556 22.6664 25.7833 16.9998 25.7833C11.3331 25.7833 6.70532 21.1556 6.70532 15.4889C6.70532 9.82223 11.3331 5.19446 16.9998 5.19446C22.6664 5.19446 27.2942 9.82223 27.2942 15.4889Z" fill="#F3A250"/>
<path d="M20.3998 17L20.9664 20.5889C21.0609 21.1556 20.4942 21.5334 20.022 21.3445L16.8109 19.6445C16.622 19.55 16.3387 19.55 16.1498 19.6445L12.9387 21.3445C12.4664 21.6278 11.8998 21.1556 11.9942 20.5889L12.5609 17C12.5609 16.8112 12.5609 16.5278 12.372 16.4334L9.72755 13.8834C9.34977 13.5056 9.53866 12.8445 10.1053 12.75L13.6942 12.1834C13.8831 12.1834 14.072 11.9945 14.1664 11.8056L15.8664 8.50004C16.1498 8.02782 16.8109 8.02782 17.0942 8.50004L18.6998 11.8056C18.7942 11.9945 18.9831 12.1834 19.172 12.1834L22.7609 12.75C23.3275 12.8445 23.5164 13.5056 23.1387 13.8834L20.4942 16.4334C20.3998 16.5278 20.3053 16.8112 20.3998 17Z" fill="#EF7B56"/>
<path d="M26.2554 19.9278C28.9942 13.4111 24.1776 6.04446 16.9998 6.04446C9.91647 6.04446 5.00536 13.2222 7.6498 19.8333C4.53313 13.0333 9.44424 5.19446 16.9998 5.19446C24.6498 5.19446 29.5609 13.2222 26.2554 19.9278Z" fill="#EF7B56"/>
<path d="M20.9664 17.5667L21.5331 21.1556C21.6275 21.7222 21.0609 22.1 20.5886 21.9111L17.3775 20.2111C17.1886 20.1167 16.9053 20.1167 16.7164 20.2111L13.5053 21.9111C13.0331 22.1945 12.4664 21.7222 12.5609 21.1556L13.1275 17.5667C13.1275 17.3778 13.1275 17.0945 12.9386 17L10.2942 14.45C9.91642 14.0722 10.1053 13.4111 10.672 13.3167L14.2609 12.75C14.4498 12.75 14.6386 12.5611 14.7331 12.3722L16.3386 9.06669C16.622 8.59447 17.2831 8.59447 17.5664 9.06669L19.172 12.3722C19.2664 12.5611 19.4553 12.75 19.6442 12.75L23.2331 13.3167C23.7998 13.4111 23.9886 14.0722 23.6109 14.45L21.1553 17C20.9664 17.0945 20.872 17.3778 20.9664 17.5667Z" fill="#F9CF6B"/>
<path opacity="0.5" d="M10.9553 14.5445C10.5776 14.1667 10.7664 13.6 11.3331 13.5056L14.5442 13.0334C14.7331 13.0334 14.922 12.8445 15.0164 12.75L16.4331 9.82225C16.622 9.35002 17.2831 9.35002 17.472 9.82225L18.8887 12.75C18.9831 12.9389 19.172 13.0334 19.3609 13.0334L22.572 13.5056C23.0442 13.6 23.2331 14.1667 22.9498 14.5445C22.9498 14.5445 20.872 16.8111 16.8109 16.8111C13.6942 16.8111 10.9553 14.5445 10.9553 14.5445Z" fill="white"/>
<path opacity="0.7" d="M17.0942 11.8056C16.8109 12.4667 16.3387 12.9389 16.1498 12.8445C15.9609 12.75 15.8664 12.0889 16.1498 11.4278C16.4331 10.7667 16.9053 10.2945 17.0942 10.3889C17.2831 10.4834 17.3775 11.1445 17.0942 11.8056Z" fill="white"/>
<path d="M11.8054 8.78338C11.522 8.78338 11.3332 8.87782 11.1443 8.97227C11.2387 9.06671 11.9943 9.82227 11.8998 9.91671C11.8054 10.0112 11.0498 9.2556 10.9554 9.16116C10.8609 9.35004 10.7665 9.53893 10.7665 9.82227C10.7665 10.8612 10.672 11.5223 10.4832 11.5223C10.3887 11.5223 10.2943 10.8612 10.1998 9.82227C10.1998 9.53893 10.1054 9.35004 10.0109 9.16116C9.91649 9.2556 9.16094 10.0112 9.06649 9.91671C8.97205 9.82227 9.7276 9.06671 9.82205 8.97227C9.63316 8.87782 9.44427 8.78338 9.16094 8.78338C6.89427 8.68893 6.89427 8.4056 9.16094 8.31116C9.34983 8.31116 9.63316 8.21671 9.82205 8.12227C9.7276 8.02782 8.97205 7.27227 9.06649 7.17782C9.16094 7.08338 9.91649 7.83893 10.0109 7.93338C10.1054 7.74449 10.1998 7.5556 10.1998 7.27227C10.2943 5.0056 10.5776 5.0056 10.672 7.27227C10.672 7.46116 10.7665 7.74449 10.8609 7.93338C10.9554 7.83893 11.7109 7.08338 11.8054 7.17782C11.8998 7.27227 11.6165 7.65004 11.1443 8.12227V8.21671C11.3332 8.31116 11.522 8.4056 11.8054 8.4056C12.8443 8.4056 13.5054 8.50004 13.5054 8.68893C13.5054 8.68893 12.8443 8.78338 11.8054 8.78338Z" fill="white"/>
<path opacity="0.2" d="M28.5217 10.4836C26.1606 5.95026 21.7217 3.30581 16.9995 3.30581C12.2773 3.30581 7.83841 5.95026 5.47729 10.3891C6.98841 6.0447 11.5217 2.55026 16.9995 2.45581C22.4773 2.55026 26.9162 6.0447 28.5217 10.4836Z" fill="white"/>
</svg>
