<svg width="34" height="34" viewBox="0 0 34 34" fill="none" xmlns="http://www.w3.org/2000/svg">
<g clip-path="url(#clip0_1_409)">
<path d="M32.0223 9.84347L33.2046 8.66111C34.2651 7.60067 34.2651 5.87506 33.2046 4.81455L29.1856 0.795419C28.1249 -0.264954 26.3994 -0.265022 25.339 0.795487L24.1566 1.97785L23.0706 0.891773C22.0101 -0.1686 20.2845 -0.168668 19.2241 0.891841L16.8253 3.29057C15.7624 4.35339 15.7622 6.07416 16.8253 7.13719L19.223 9.53483L9.53479 19.223L7.13715 16.8253C6.07447 15.7625 4.35355 15.7621 3.2906 16.8253L0.891736 19.224C-0.168637 20.2845 -0.168637 22.0102 0.891804 23.0707L1.97774 24.1566L0.795382 25.339C-0.265127 26.3994 -0.265127 28.125 0.795382 29.1855L4.81445 33.2047C5.87523 34.2652 7.60056 34.2651 8.661 33.2046L9.84337 32.0222L10.9294 33.1082C11.9898 34.1685 13.7154 34.1686 14.7759 33.1082L17.1747 30.7094C18.2376 29.6466 18.2378 27.9258 17.1747 26.8628L14.777 24.4652L24.4651 14.7771L26.8628 17.1747C27.9255 18.2375 29.6464 18.2379 30.7093 17.1747L33.1081 14.776C34.1685 13.7155 34.1686 11.9899 33.1081 10.9294L32.0223 9.84347ZM26.8775 2.33396C27.0896 2.12187 27.4348 2.12187 27.6469 2.33396L31.6659 6.35303C31.878 6.56511 31.878 6.91028 31.6659 7.12236L30.4836 8.30473L25.6952 3.51625L26.8775 2.33396ZM7.12246 31.666C6.91038 31.8781 6.56521 31.8781 6.35313 31.666L2.33413 27.647C2.12204 27.4349 2.12197 27.0897 2.33406 26.8776L3.51642 25.6953L8.30483 30.4838L7.12246 31.666ZM15.6361 29.1708L13.2374 31.5696C13.0253 31.7816 12.6801 31.7816 12.4681 31.5696L2.43048 21.5321C2.21839 21.32 2.21839 20.9748 2.43041 20.7627C5.03415 18.1591 4.9074 18.2047 5.21394 18.2047C5.55468 18.2047 4.81799 17.5833 15.6362 28.4015C15.7381 28.5035 15.7954 28.6419 15.7954 28.7862C15.7954 28.9304 15.7381 29.0688 15.6361 29.1708ZM13.2385 22.9266L11.0734 20.7615L20.7615 11.0734L22.9266 13.2384L13.2385 22.9266ZM31.5696 13.2374C28.9658 15.841 29.0926 15.7954 28.7861 15.7954C28.4756 15.7954 28.6426 15.8773 25.2345 12.4692C17.8322 5.0669 18.2046 5.53589 18.2046 5.21391C18.2046 4.91023 18.1503 5.04283 20.7626 2.43045C20.8131 2.37989 20.8731 2.33981 20.9391 2.31251C21.0051 2.2852 21.0758 2.27121 21.1473 2.27133C21.4656 2.27133 20.5816 1.4801 31.5695 12.468C31.7816 12.6801 31.7816 13.0253 31.5696 13.2374Z" fill="#9C3CC2"/>
</g>
<defs>
<clipPath id="clip0_1_409">
<rect width="34" height="34" fill="white"/>
</clipPath>
</defs>
</svg>
