<svg width="14" height="14" viewBox="0 0 14 14" fill="none" xmlns="http://www.w3.org/2000/svg">
<path d="M9.02825 7.51953L9.912 12.493C9.9219 12.5516 9.91368 12.6118 9.88844 12.6656C9.86321 12.7193 9.82216 12.7641 9.77079 12.7939C9.71942 12.8237 9.66017 12.8371 9.60097 12.8324C9.54176 12.8276 9.48543 12.8049 9.4395 12.7672L7.35116 11.1998C7.25035 11.1245 7.12788 11.0838 7.00204 11.0838C6.8762 11.0838 6.75373 11.1245 6.65291 11.1998L4.56108 12.7666C4.51518 12.8042 4.45892 12.8269 4.39979 12.8317C4.34066 12.8365 4.28147 12.8231 4.23013 12.7934C4.1788 12.7636 4.13774 12.719 4.11245 12.6653C4.08716 12.6116 4.07883 12.5515 4.08858 12.493L4.97175 7.51953" stroke="#D08700" stroke-width="1.16667" stroke-linecap="round" stroke-linejoin="round"/>
<path d="M7 8.16699C8.933 8.16699 10.5 6.59999 10.5 4.66699C10.5 2.734 8.933 1.16699 7 1.16699C5.067 1.16699 3.5 2.734 3.5 4.66699C3.5 6.59999 5.067 8.16699 7 8.16699Z" stroke="#D08700" stroke-width="1.16667" stroke-linecap="round" stroke-linejoin="round"/>
</svg>
