<svg width="72" height="72" viewBox="0 0 72 72" fill="none" xmlns="http://www.w3.org/2000/svg">
<path d="M0 16C0 7.16344 7.16345 0 16 0H55.9953C64.8318 0 71.9953 7.16345 71.9953 16V55.9953C71.9953 64.8318 64.8318 71.9953 55.9953 71.9953H16C7.16344 71.9953 0 64.8318 0 55.9953V16Z" fill="white" fill-opacity="0.2"/>
<path d="M41.7924 37.4805L44.3173 51.6895C44.3456 51.8569 44.3221 52.0288 44.25 52.1824C44.1779 52.336 44.0606 52.464 43.9139 52.5491C43.7671 52.6343 43.5978 52.6726 43.4287 52.659C43.2595 52.6453 43.0986 52.5804 42.9674 52.4728L37.0011 47.9948C36.7131 47.7796 36.3632 47.6633 36.0037 47.6633C35.6441 47.6633 35.2942 47.7796 35.0062 47.9948L29.0299 52.4712C28.8988 52.5785 28.7381 52.6434 28.5691 52.657C28.4002 52.6707 28.2311 52.6325 28.0844 52.5476C27.9378 52.4627 27.8205 52.335 27.7482 52.1817C27.676 52.0284 27.6522 51.8567 27.68 51.6895L30.2032 37.4805" stroke="#FFDF20" stroke-width="3.33311" stroke-linecap="round" stroke-linejoin="round"/>
<path d="M35.9976 39.3307C41.5201 39.3307 45.997 34.8539 45.997 29.3314C45.997 23.8089 41.5201 19.332 35.9976 19.332C30.4751 19.332 25.9983 23.8089 25.9983 29.3314C25.9983 34.8539 30.4751 39.3307 35.9976 39.3307Z" stroke="#FFDF20" stroke-width="3.33311" stroke-linecap="round" stroke-linejoin="round"/>
</svg>
