<svg width="366" height="139" viewBox="0 0 366 139" fill="none" xmlns="http://www.w3.org/2000/svg">
<path d="M440.331 89.7055L433.31 102.419C430.723 85.3354 404.566 137.309 368.93 138.913C333.29 140.522 370.589 74.6327 333.353 64.7814C296.12 54.9335 205.963 157.52 164.064 65.9903C122.164 -25.5365 0.000666869 -17.8419 0.000666869 -17.8419L10.6418 -37.1057C10.6418 -37.1057 136.881 -44.3549 179.517 50.7307C222.151 145.813 307.823 39.9428 342.684 50.8236C377.546 61.6984 341.078 122.83 376.646 121.677C412.214 120.528 437.316 69.7715 440.328 89.702L440.331 89.7055Z" fill="#123635"/>
<path d="M454.316 64.3875L447.33 77.0321C443.887 54.2507 419.837 103.786 384.346 104.486C348.85 105.179 384.485 48.8141 351.993 36.9028C319.498 24.9911 238.317 134.146 194.946 35.5077C151.573 -63.1337 21.2652 -56.3351 21.2652 -56.3351L31.8668 -75.5245C31.8668 -75.5245 166.251 -81.8777 210.36 20.3195C254.47 122.517 331.165 10.0722 361.288 23.0139C391.412 35.9526 356.601 87.5612 392.026 87.3222C427.452 87.0802 450.446 38.7591 454.319 64.3879L454.316 64.3875Z" fill="#123635"/>
<path d="M468.222 39.2152L461.28 51.7829C456.975 23.3092 435.036 70.4129 399.685 70.1985C364.334 69.9842 398.309 23.1362 370.558 9.16451C342.807 -4.80415 270.597 110.921 225.75 5.1709C180.906 -100.582 42.4485 -94.6859 42.4485 -94.6859L53.0115 -113.807C53.0115 -113.807 195.545 -119.257 241.122 -9.94935C286.706 99.3594 354.429 -19.6556 379.814 -4.65303C405.193 10.3516 372.046 52.4381 407.329 53.1037C442.609 53.775 463.489 7.88806 468.226 39.2127L468.222 39.2152Z" fill="#123635"/>
<path d="M472.964 30.6273L470.576 34.9527C466.271 6.47594 445.931 45.6592 411.386 43.2865C378.126 41.0033 406.754 2.03485 381.987 -12.6975C355.447 -28.5843 292.541 76.4644 243.219 -20.6932C192.881 -119.844 58.5616 -123.856 58.5616 -123.856L64.1498 -133.969C64.1498 -133.969 189.81 -121.044 245.353 -31.4993C297.918 53.2527 356.456 -37.5114 384.198 -20.8072C408.317 -6.288 384.28 29.608 415.483 33.4075C449.345 37.5361 469.087 5.00403 472.964 30.6303L472.964 30.6273Z" fill="#123635"/>
<path d="M477.142 23.0639L475.42 26.1824C471.976 3.40405 452.881 29.3578 419.649 23.4059C390.535 18.1881 409.97 -14.7734 386.482 -29.039C357.565 -46.6025 302.635 29.7827 247.55 -42.4319C186.179 -122.889 69.8047 -144.212 69.8047 -144.212L74.7275 -153.125C74.7275 -153.125 180.979 -123.761 249.018 -52.0372C305.694 7.70871 357.941 -54.3794 388.027 -35.948C410.89 -21.9414 396.068 8.21125 423.079 14.7242C455.718 22.5982 474.131 3.13045 477.142 23.0639Z" fill="#123635"/>
<path d="M481.174 15.7628L479.016 19.6715C476.43 2.58504 458.724 15.6758 426.664 5.77563C401.757 -1.91469 411.974 -29.3905 389.727 -43.1273C358.472 -62.4298 307.867 -14.2901 250.635 -61.9168C174.916 -124.939 79.8043 -162.309 79.8043 -162.309L85.1635 -172.009C85.1635 -172.009 168.041 -126.123 252.536 -72.3068C309.332 -36.1393 359.29 -71.0055 391.709 -50.8204C413.341 -37.3534 407.713 -12.436 430.536 -3.68935C462.002 8.37457 479.024 1.52467 481.177 15.7633L481.174 15.7628Z" fill="#123635"/>
<path d="M488.328 2.81897L484.205 10.2826C482.483 -1.10807 466.095 -0.348958 435.271 -14.7302C414.502 -24.4201 415.581 -46.8999 394.567 -60.0905C360.99 -81.1604 310.96 -58.6573 255.311 -84.2772C161.061 -127.668 91.3892 -183.285 91.3892 -183.285L98.7132 -196.546C98.7132 -196.546 154.618 -129.218 259.178 -98.2311C313.427 -82.1569 363.782 -93.3173 398.511 -71.3481C418.915 -58.4389 422.314 -38.2837 441.1 -27.7571C471.184 -10.8944 487.033 -5.7308 488.325 2.81547L488.328 2.81897Z" fill="#123635"/>
<path d="M497.286 -13.4007L492.723 -5.14126C491.862 -10.8366 476.398 -21.7517 447.205 -41.271C430.324 -52.5597 422.533 -70.4666 402.732 -83.0892C366.857 -105.963 316.454 -105.212 263.319 -112.672C148.606 -128.779 106.309 -210.294 106.309 -210.294L114.072 -224.342C114.072 -224.342 143.772 -126.259 267.622 -127.416C320.398 -127.91 370.132 -118.965 407.118 -95.1331C426.326 -82.8202 438.4 -67.0825 453.48 -55.0836C481.565 -32.7374 496.857 -16.2451 497.289 -13.3972L497.286 -13.4007Z" fill="#123635"/>
</svg>
