<svg width="448" height="270" viewBox="0 0 448 270" fill="none" xmlns="http://www.w3.org/2000/svg">
<g clip-path="url(#clip0_191_620)">
<path d="M0 24C0 10.7452 10.7452 0 24 0H424C437.255 0 448 10.7452 448 24V246C448 259.255 437.255 270 424 270H24C10.7452 270 0 259.255 0 246V24Z" fill="url(#paint0_linear_191_620)"/>
<path d="M475.214 89.7055L468.192 102.419C465.606 85.3354 439.448 137.309 403.813 138.913C368.173 140.522 405.472 74.6327 368.236 64.7814C331.003 54.9335 240.846 157.52 198.947 65.9903C157.047 -25.5365 34.8835 -17.8419 34.8835 -17.8419L45.5246 -37.1057C45.5246 -37.1057 171.764 -44.3549 214.4 50.7307C257.034 145.813 342.706 39.9428 377.567 50.8236C412.428 61.6984 375.961 122.83 411.529 121.677C447.097 120.528 472.199 69.7715 475.211 89.702L475.214 89.7055Z" fill="#123635"/>
<path d="M489.199 64.3875L482.213 77.0321C478.769 54.2507 454.72 103.786 419.229 104.486C383.733 105.179 419.368 48.8141 386.876 36.9028C354.381 24.9911 273.199 134.146 229.829 35.5077C186.456 -63.1337 56.148 -56.3351 56.148 -56.3351L66.7496 -75.5245C66.7496 -75.5245 201.134 -81.8777 245.243 20.3195C289.353 122.517 366.048 10.0722 396.171 23.0139C426.294 35.9526 391.484 87.5612 426.909 87.3222C462.335 87.0802 485.329 38.7591 489.202 64.3879L489.199 64.3875Z" fill="#123635"/>
<path d="M503.105 39.2152L496.162 51.7829C491.857 23.3092 469.919 70.4129 434.568 70.1985C399.216 69.9842 433.192 23.1362 405.441 9.16451C377.689 -4.80415 305.479 110.921 260.633 5.1709C215.789 -100.582 77.3313 -94.6859 77.3313 -94.6859L87.8943 -113.807C87.8943 -113.807 230.428 -119.257 276.005 -9.94935C321.588 99.3594 389.312 -19.6556 414.697 -4.65303C440.076 10.3516 406.929 52.4381 442.212 53.1037C477.492 53.775 498.372 7.88806 503.109 39.2127L503.105 39.2152Z" fill="#123635"/>
<path d="M507.847 30.6273L505.459 34.9527C501.154 6.47594 480.814 45.6592 446.269 43.2865C413.009 41.0033 441.637 2.03485 416.87 -12.6975C390.33 -28.5843 327.424 76.4644 278.101 -20.6932C227.764 -119.844 93.4444 -123.856 93.4444 -123.856L99.0326 -133.969C99.0326 -133.969 224.692 -121.044 280.235 -31.4993C332.801 53.2527 391.339 -37.5114 419.081 -20.8072C443.2 -6.288 419.163 29.608 450.366 33.4075C484.227 37.5361 503.97 5.00403 507.846 30.6303L507.847 30.6273Z" fill="#123635"/>
<path d="M512.025 23.0639L510.303 26.1824C506.859 3.40405 487.764 29.3578 454.532 23.4059C425.418 18.1881 444.853 -14.7734 421.364 -29.039C392.448 -46.6025 337.517 29.7827 282.432 -42.4319C221.062 -122.889 104.688 -144.212 104.688 -144.212L109.61 -153.125C109.61 -153.125 215.862 -123.761 283.901 -52.0372C340.577 7.70871 392.824 -54.3794 422.91 -35.948C445.772 -21.9414 430.95 8.21125 457.961 14.7242C490.601 22.5982 509.014 3.13045 512.025 23.0639Z" fill="#123635"/>
<path d="M516.057 15.7628L513.898 19.6715C511.313 2.58504 493.606 15.6758 461.547 5.77563C436.64 -1.91469 446.857 -29.3905 424.61 -43.1273C393.355 -62.4298 342.75 -14.2901 285.518 -61.9168C209.799 -124.939 114.687 -162.309 114.687 -162.309L120.046 -172.009C120.046 -172.009 202.924 -126.123 287.419 -72.3068C344.214 -36.1393 394.173 -71.0055 426.592 -50.8204C448.224 -37.3534 442.596 -12.436 465.419 -3.68935C496.885 8.37457 513.906 1.52467 516.06 15.7633L516.057 15.7628Z" fill="#123635"/>
<path d="M523.21 2.81897L519.088 10.2826C517.366 -1.10807 500.978 -0.348958 470.153 -14.7302C449.385 -24.4201 450.464 -46.8999 429.45 -60.0905C395.873 -81.1604 345.843 -58.6573 290.194 -84.2772C195.944 -127.668 126.272 -183.285 126.272 -183.285L133.596 -196.546C133.596 -196.546 189.501 -129.218 294.06 -98.2311C348.31 -82.1569 398.664 -93.3173 433.394 -71.3481C453.798 -58.4389 457.197 -38.2837 475.983 -27.7571C506.067 -10.8944 521.916 -5.7308 523.208 2.81547L523.21 2.81897Z" fill="#123635"/>
<path d="M532.169 -13.4007L527.606 -5.14126C526.745 -10.8366 511.281 -21.7517 482.088 -41.271C465.207 -52.5597 457.416 -70.4666 437.615 -83.0892C401.74 -105.963 351.336 -105.212 298.202 -112.672C183.489 -128.779 141.192 -210.294 141.192 -210.294L148.955 -224.342C148.955 -224.342 178.654 -126.259 302.505 -127.416C355.281 -127.91 405.014 -118.965 442.001 -95.1331C461.209 -82.8202 473.283 -67.0825 488.363 -55.0836C516.448 -32.7374 531.74 -16.2451 532.172 -13.3972L532.169 -13.4007Z" fill="#123635"/>
</g>
<defs>
<linearGradient id="paint0_linear_191_620" x1="224" y1="0" x2="224" y2="270" gradientUnits="userSpaceOnUse">
<stop stop-color="#191919"/>
<stop offset="1" stop-color="#113737"/>
</linearGradient>
<clipPath id="clip0_191_620">
<path d="M0 24C0 10.7452 10.7452 0 24 0H424C437.255 0 448 10.7452 448 24V246C448 259.255 437.255 270 424 270H24C10.7452 270 0 259.255 0 246V24Z" fill="white"/>
</clipPath>
</defs>
</svg>
