<svg width="24" height="24" viewBox="0 0 24 24" fill="none" xmlns="http://www.w3.org/2000/svg">
<path d="M18.9908 6.99661V3.99805C18.9908 3.73297 18.8855 3.47873 18.6981 3.29129C18.5106 3.10384 18.2564 2.99854 17.9913 2.99854H4.99757C4.4674 2.99854 3.95893 3.20915 3.58404 3.58404C3.20915 3.95893 2.99854 4.4674 2.99854 4.99757C2.99854 5.52775 3.20915 6.03621 3.58404 6.41111C3.95893 6.786 4.4674 6.99661 4.99757 6.99661H19.9904C20.2555 6.99661 20.5097 7.10192 20.6971 7.28936C20.8846 7.47681 20.9899 7.73104 20.9899 7.99613V11.9942M20.9899 11.9942H17.9913C17.4611 11.9942 16.9527 12.2048 16.5778 12.5797C16.2029 12.9546 15.9923 13.4631 15.9923 13.9932C15.9923 14.5234 16.2029 15.0319 16.5778 15.4068C16.9527 15.7817 17.4611 15.9923 17.9913 15.9923H20.9899C21.255 15.9923 21.5092 15.887 21.6966 15.6995C21.8841 15.5121 21.9894 15.2579 21.9894 14.9928V12.9937C21.9894 12.7286 21.8841 12.4744 21.6966 12.287C21.5092 12.0995 21.255 11.9942 20.9899 11.9942Z" stroke="black" stroke-width="1.99904" stroke-linecap="round" stroke-linejoin="round"/>
<path d="M2.99854 4.99756V18.9908C2.99854 19.521 3.20915 20.0295 3.58404 20.4044C3.95893 20.7793 4.4674 20.9899 4.99757 20.9899H19.9904C20.2554 20.9899 20.5097 20.8846 20.6971 20.6971C20.8846 20.5097 20.9899 20.2554 20.9899 19.9903V15.9923" stroke="black" stroke-width="1.99904" stroke-linecap="round" stroke-linejoin="round"/>
</svg>
