<svg width="20" height="20" viewBox="0 0 20 20" fill="none" xmlns="http://www.w3.org/2000/svg">
<g clip-path="url(#clip0_199_186)">
<path d="M7.44434e-06 9.97708C0.00667381 4.46483 4.5148 -0.013303 10.0437 2.96946e-05C15.5351 0.0133624 20.0074 4.51566 19.9999 10.0229C19.9924 15.536 15.4835 20.015 9.95623 20C4.46481 19.9858 -0.00665892 15.4843 7.44434e-06 9.97708ZM13.2744 8.03467H6.7322V11.9728H13.2744V8.03467ZM6.95136 6.63973H13.0486C12.8094 5.24896 12.4503 3.92902 11.7378 2.73324C11.5478 2.41492 11.3128 2.11243 11.0503 1.84995C10.3554 1.15498 9.64207 1.16164 8.93877 1.85661C8.72295 2.0691 8.52546 2.30993 8.3638 2.56575C7.58217 3.80736 7.20135 5.19063 6.95053 6.63973H6.95136ZM6.94636 13.3519C7.23635 14.9244 7.628 16.4318 8.57629 17.7301C8.75378 17.9726 8.97794 18.1942 9.21876 18.375C9.74957 18.7742 10.2554 18.7675 10.7895 18.3734C10.9887 18.2267 11.1778 18.0525 11.3287 17.8576C12.3503 16.5351 12.7511 14.976 13.0553 13.3519H6.94636ZM1.57827 8.01884C1.25745 9.34794 1.24578 10.6595 1.5841 11.9795H5.37227V8.01884H1.57827ZM14.6293 8.01384V11.9745H18.4233C18.745 10.6387 18.7558 9.33044 18.4125 8.01384H14.6293ZM5.53226 6.64473C5.75142 5.7881 5.91474 4.95481 6.1839 4.15651C6.44888 3.36821 6.82053 2.61575 7.15885 1.81495C4.77563 2.70407 3.07154 4.2865 2.01075 6.64473H5.53226ZM7.27385 18.2259C6.29806 16.6576 5.86891 15.0219 5.57559 13.3644H2.00908C3.0807 15.7177 4.77979 17.3059 7.27301 18.2259H7.27385ZM12.8244 1.85328C13.7011 3.33988 14.1302 4.96814 14.4235 6.64973H17.99C16.9359 4.28984 15.2285 2.70907 12.8236 1.85328H12.8244ZM14.421 13.3469C14.1335 15.0494 13.6902 16.6659 12.7719 18.1534C14.7493 17.7492 17.7225 14.9477 17.9109 13.3469H14.421Z" fill="#90A1B9"/>
</g>
<defs>
<clipPath id="clip0_199_186">
<rect width="20" height="20" fill="white"/>
</clipPath>
</defs>
</svg>
