<svg width="34" height="34" viewBox="0 0 34 34" fill="none" xmlns="http://www.w3.org/2000/svg">
<g clip-path="url(#clip0_1_400)">
<path d="M17 10.7127C19.5254 10.7127 21.5726 8.6655 21.5726 6.14016C21.5726 3.61482 19.5254 1.56763 17 1.56763C14.4747 1.56763 12.4275 3.61482 12.4275 6.14016C12.4275 8.6655 14.4747 10.7127 17 10.7127Z" stroke="#5036CF" stroke-width="2.34375" stroke-miterlimit="10" stroke-linecap="round" stroke-linejoin="round"/>
<path d="M17 10.7127C14.4746 10.7127 12.4274 12.7599 12.4274 15.2852V21.7872C12.4274 22.2877 12.309 22.7811 12.0817 23.227C11.8545 23.6729 11.5249 24.0587 11.12 24.3528C10.715 24.647 10.2462 24.8411 9.7519 24.9193C9.25756 24.9975 8.75173 24.9576 8.27578 24.8028L2.57646 22.951C1.37557 22.5608 0.718417 21.271 1.10862 20.0701C1.49876 18.8692 2.78857 18.212 3.98946 18.6022L7.8549 19.8578C7.8549 14.8105 11.9527 10.7127 17 10.7127Z" stroke="#5036CF" stroke-width="2.34375" stroke-miterlimit="10" stroke-linecap="round" stroke-linejoin="round"/>
<path d="M16.9999 10.7127C19.5253 10.7127 21.5724 12.7599 21.5724 15.2852V21.7872C21.5724 22.2876 21.6909 22.781 21.9181 23.2268C22.1453 23.6727 22.4748 24.0585 22.8796 24.3526C23.2845 24.6468 23.7532 24.8409 24.2475 24.9192C24.7417 24.9974 25.2475 24.9576 25.7234 24.803L31.4235 22.9509C32.6244 22.5608 33.2815 21.2709 32.8913 20.07C32.5012 18.8691 31.2114 18.212 30.0105 18.6022L26.145 19.8577C26.145 14.8105 22.0472 10.7127 16.9999 10.7127ZM3.28223 28.4314C3.28223 30.641 5.07354 32.4323 7.2832 32.4323H23.8587C23.8587 30.9025 22.8736 29.546 21.4187 29.0732L8.27565 24.8029C5.81111 24.002 3.28223 25.8442 3.28223 28.4314Z" stroke="#5036CF" stroke-width="2.34375" stroke-miterlimit="10" stroke-linecap="round" stroke-linejoin="round"/>
<path d="M25.7242 24.8028L17 27.6374L21.4189 29.0732C22.8738 29.546 23.8588 30.9025 23.8588 32.4323H26.7167C28.9264 32.4323 30.7177 30.641 30.7177 28.4313C30.7177 25.8441 28.1888 24.002 25.7242 24.8028Z" stroke="#5036CF" stroke-width="2.34375" stroke-miterlimit="10" stroke-linecap="round" stroke-linejoin="round"/>
</g>
<defs>
<clipPath id="clip0_1_400">
<rect width="34" height="34" fill="white"/>
</clipPath>
</defs>
</svg>
